<?xml version="1.0" standalone="no"?>
<!DOCTYPE svg PUBLIC "-//W3C//DTD SVG 1.1//EN" "http://www.w3.org/Graphics/SVG/1.1/DTD/svg11.dtd" >
<svg xmlns="http://www.w3.org/2000/svg" xmlns:xlink="http://www.w3.org/1999/xlink" version="1.1">
<metadata></metadata>
<defs>
<font id="sarati_eldamar_ltrregular" horiz-adv-x="0" >
<font-face units-per-em="2048" ascent="1638" descent="-410" />
<missing-glyph horiz-adv-x="614" />
<glyph />
<glyph horiz-adv-x="682" />
<glyph unicode=" "  horiz-adv-x="614" />
<glyph unicode="&#x09;" horiz-adv-x="614" />
<glyph unicode="&#xa0;" horiz-adv-x="614" />
<glyph unicode="!" horiz-adv-x="614" d="M-428 799l223 184h1247l-223 -184h-1247z" />
<glyph unicode="&#x22;" horiz-adv-x="929" d="M0 -162q0 66 24.5 158t63.5 195.5t89 212t101.5 209t99.5 186.5t85 143q8 8 13 2t1 -12q-20 -25 -52 -90.5t-69 -152.5t-73.5 -187.5t-66.5 -196.5t-48 -178t-18 -133q0 -68 35.5 -131.5t92 -111.5t125 -76.5t134.5 -28.5q37 0 78.5 14t75.5 39t56.5 60.5t22.5 78.5 t-18.5 82t-44.5 74l133 117q25 -23 45 -45q16 -18 30.5 -39t14.5 -37q0 -53 -32 -110.5t-83 -113t-117.5 -104.5t-134 -87t-132 -59.5t-114.5 -21.5q-59 0 -115.5 33t-101.5 83t-72.5 111.5t-27.5 116.5z" />
<glyph unicode="#" horiz-adv-x="956" d="M0 -162q0 66 24.5 158t63.5 195.5t89 212t101.5 209t99.5 186.5t85 143q8 8 13 2t1 -12q-16 -20 -40.5 -68.5t-53.5 -115t-59.5 -146.5t-59 -161t-52.5 -160.5t-40 -145.5h557q145 0 289.5 14.5t288.5 45.5q-18 -68 -64.5 -106t-99.5 -58.5t-104.5 -25.5t-82.5 -5h-32 q12 -18 12 -37q0 -53 -33 -109.5t-85 -107.5t-118.5 -97t-135 -81t-133 -54.5t-114.5 -19.5q-59 0 -115.5 33t-101.5 83t-72.5 111.5t-27.5 116.5zM152 -6q0 -70 35.5 -133.5t91 -110.5t124 -75.5t134.5 -28.5q37 0 77.5 13t76.5 37.5t58.5 60.5t22.5 79q0 39 -17.5 85 t-39.5 79q-211 0 -326 -1t-167 -2t-61 -2z" />
<glyph unicode="$" horiz-adv-x="1011" d="M0 -162q0 66 24.5 158t63.5 195.5t89 212t101.5 209t99.5 186.5t85 143q8 8 13 2t1 -12q-16 -18 -39.5 -64.5t-50.5 -109t-56.5 -137t-56.5 -152.5h23q86 2 177 5t183.5 9t182.5 17.5t172 27.5q-10 -43 -23.5 -77.5t-37 -60t-57.5 -40t-83 -14.5q-135 0 -287.5 7 t-287.5 13q-18 -59 -36 -116.5t-28 -104.5h557q145 0 289.5 14.5t288.5 45.5q-18 -68 -64.5 -106t-99.5 -58.5t-104.5 -25.5t-82.5 -5h-32q12 -18 12 -37q0 -53 -33 -109.5t-85 -107.5t-118.5 -97t-135 -81t-133 -54.5t-114.5 -19.5q-59 0 -115.5 33t-101.5 83t-72.5 111.5 t-27.5 116.5zM152 -6q0 -70 35.5 -133.5t91 -110.5t124 -75.5t134.5 -28.5q37 0 77.5 13t76.5 37.5t58.5 60.5t22.5 79q0 39 -17.5 85t-39.5 79q-211 0 -326 -1t-167 -2t-61 -2z" />
<glyph unicode="%" horiz-adv-x="929" d="M0 170q0 100 52 212t126 218.5t153 196.5t132 145q8 8 13 2t1 -12q-31 -37 -86 -107.5t-108.5 -155.5t-93 -176.5t-39.5 -166.5q0 -68 35.5 -131.5t93 -110.5t125 -75.5t133.5 -28.5q37 0 78.5 14t75.5 38.5t56.5 60.5t22.5 79t-18.5 82t-44.5 74l133 116q25 -23 45 -45 q16 -18 30.5 -38.5t14.5 -36.5q0 -53 -32 -110.5t-83 -113t-117.5 -104.5t-134 -87t-132 -59.5t-114.5 -21.5q-25 0 -54.5 -28.5t-55 -68.5t-41.5 -81t-16 -64q0 -70 36.5 -128t93 -100t125 -65.5t132.5 -23.5q37 0 78.5 14.5t75.5 39t56.5 60t22.5 78.5t-18.5 82t-44.5 74 l133 117q25 -23 45 -45q16 -18 30.5 -39t14.5 -37q0 -53 -32 -110.5t-83 -113t-117.5 -104.5t-134 -87t-132 -59.5t-114.5 -21.5q-57 0 -114.5 28t-102.5 72t-72.5 100t-27.5 114q0 72 15.5 129t44 106t67.5 93t88 94q-39 20 -78 55t-69.5 78t-49 90t-18.5 94z" />
<glyph unicode="&#x26;" horiz-adv-x="1550" d="M0 -162q0 66 24.5 158t63.5 195.5t89 212t101.5 209t99.5 186.5t85 143q8 8 13 2t1 -12q-16 -20 -40.5 -68.5t-53.5 -115t-59.5 -146.5t-59 -161t-52.5 -160.5t-40 -145.5h1171q145 0 290 14.5t288 45.5q-18 -68 -64.5 -106t-99.5 -58.5t-104 -25.5t-82 -5h-33 q12 -18 12 -37q0 -53 -32.5 -108.5t-86 -107.5t-121 -98t-137 -80t-134 -53.5t-113.5 -19.5q-68 0 -130.5 42t-109.5 104q-98 -66 -197.5 -107t-171.5 -41q-59 0 -115.5 33t-101.5 83t-72.5 111.5t-27.5 116.5zM152 0q0 -72 35.5 -136.5t91 -112.5t124 -76.5t134.5 -28.5 q37 0 77.5 13t76.5 37.5t58.5 60.5t22.5 79q0 39 -17.5 85t-39.5 79h-563zM856 -213q59 -63 138 -102t157 -39q37 0 78 13t76.5 37.5t58 60.5t22.5 79q0 39 -17 85t-40 79h-405q12 -18 12 -37q0 -43 -21.5 -88t-58.5 -88z" />
<glyph unicode="'" horiz-adv-x="1550" d="M0 -162q0 66 24.5 158t63.5 195.5t89 212t101.5 209t99.5 186.5t85 143q8 8 13 2t1 -12q-16 -18 -39.5 -64.5t-50.5 -109t-56.5 -137t-56.5 -152.5q57 2 148.5 3t198 4t222 7t222 10.5t196 14.5t146.5 20q-10 -43 -23.5 -77.5t-37 -60t-57.5 -40t-83 -14.5 q-45 0 -121.5 1t-169 2t-193.5 4t-193.5 5t-170 4t-122.5 4q-18 -59 -36 -116.5t-28 -104.5h1171q145 0 290 14.5t288 45.5q-25 -84 -87 -125t-128 -56q-78 -18 -168 -14q12 -18 12 -37q0 -53 -32.5 -108.5t-86 -107.5t-121 -98t-137 -80t-134 -53.5t-113.5 -19.5 q-68 0 -130.5 42t-109.5 104q-98 -66 -197.5 -107t-171.5 -41q-59 0 -115.5 33t-101.5 83t-72.5 111.5t-27.5 116.5zM152 0q-2 -72 32.5 -135.5t91 -112.5t125 -77.5t136.5 -28.5q37 0 77.5 13t76.5 37.5t58.5 60.5t22.5 79q0 39 -17.5 85t-39.5 79h-563zM856 -213 q59 -63 138 -102t157 -39q37 0 78 13t76.5 37.5t58 60.5t22.5 79q0 39 -17 85t-40 79h-405q12 -18 12 -37q0 -43 -21.5 -88t-58.5 -88z" />
<glyph unicode="(" horiz-adv-x="1540" d="M0 297q0 106 33 192t85 162t116.5 146.5t127.5 144.5q8 8 13.5 2t1.5 -12q-59 -59 -102.5 -111.5t-72 -109t-43 -124t-14.5 -155.5q0 -66 35 -123t90.5 -98t123 -64.5t132.5 -23.5l795 2q74 0 148.5 -3t136 -25.5t99.5 -74t38 -149.5q0 -37 -25.5 -71.5t-61.5 -67.5 t-76 -58.5t-67 -44.5q27 63 27 123q0 111 -54 178.5t-173 67.5l-1012 -2q-57 0 -111.5 26.5t-96.5 68.5t-67.5 95.5t-25.5 108.5z" />
<glyph unicode=")" horiz-adv-x="1540" d="M0 215q0 53 29.5 106.5t76.5 104.5q-47 16 -75.5 43t-28.5 63q0 61 40 120t96.5 113t116.5 102t103 85q8 8 13.5 2t1.5 -12q-25 -23 -63 -53.5t-73.5 -71.5t-61 -93t-25.5 -116q0 -51 40.5 -76.5t105 -34t142.5 -3t151 15.5t132 22.5t88 18.5q-59 -98 -140 -131t-175 -35 h-62t-85 2t-95 8t-94 17q-12 -37 -13 -82q0 -66 35 -107t90.5 -63.5t123 -29.5t132.5 -7l795 2q74 0 148.5 -3t136 -25.5t99.5 -74t38 -149.5q0 -37 -25.5 -71.5t-61.5 -67.5t-76 -58.5t-67 -44.5q27 63 27 123q0 111 -54 178.5t-173 67.5l-1012 -2q-57 0 -111.5 13.5 t-96.5 41t-67.5 67.5t-25.5 95z" />
<glyph unicode="*" horiz-adv-x="1540" d="M0 297q0 106 33 192t85 162t116.5 146.5t127.5 144.5q8 8 13.5 2t1.5 -12q-49 -49 -88 -94t-66.5 -91.5t-45 -97.5t-25.5 -114l16 16l891 -2q23 0 54.5 -2t59 -10.5t47 -25.5t19.5 -50q0 -37 -14.5 -69t-37 -59.5t-50 -51t-54.5 -43.5q6 20 7 41q0 39 -18.5 67.5 t-46.5 47t-63.5 26.5t-68.5 8l-748 -2q2 -66 37 -121t90.5 -96t122 -63.5t131.5 -22.5l795 2q74 0 148.5 -3t136 -25.5t99.5 -74t38 -149.5q0 -37 -25.5 -71.5t-61.5 -67.5t-76 -58.5t-67 -44.5q27 63 27 123q0 111 -54 178.5t-173 67.5l-1012 -2q-57 0 -111.5 26.5 t-96.5 68.5t-67.5 95.5t-25.5 108.5z" />
<glyph unicode="+" horiz-adv-x="1540" d="M0 297q0 106 33 192t85 162t116.5 146.5t127.5 144.5q8 8 13.5 2t1.5 -12q-59 -59 -102.5 -111.5t-72 -109t-43 -124t-14.5 -155.5q0 -66 35 -123t90.5 -98t123 -64.5t132.5 -23.5h332q12 98 16.5 180t4.5 162t-2.5 167t-2.5 197l199 125v-831l248 2q74 0 148.5 -3 t136 -25.5t99.5 -74t38 -149.5q0 -37 -25.5 -71.5t-61.5 -67.5t-76 -58.5t-67 -44.5q27 63 27 123q0 111 -54 178.5t-173 67.5l-1012 -2q-57 0 -111.5 26.5t-96.5 68.5t-67.5 95.5t-25.5 108.5z" />
<glyph unicode="," horiz-adv-x="1540" d="M0 297q0 106 33 192t85 162t116.5 146.5t127.5 144.5q8 8 13.5 2t1.5 -12q-59 -59 -102.5 -111.5t-72 -109t-43 -124t-14.5 -155.5q0 -66 35 -123t90.5 -98t123 -64.5t132.5 -23.5h332q12 98 16.5 180t4.5 162t-2.5 167t-2.5 197l199 125v-419l19 14h389q23 0 54.5 -2 t59 -10.5t47 -25.5t19.5 -50q0 -37 -14.5 -69t-37 -59.5t-50 -51t-54.5 -43.5q6 20 6 41q0 39 -18 67.5t-46 47t-63.5 26.5t-68.5 8h-242v-305l248 2q74 0 148.5 -3t136 -25.5t99.5 -74t38 -149.5q0 -37 -25.5 -71.5t-61.5 -67.5t-76 -58.5t-67 -44.5q27 63 27 123 q0 111 -54 178.5t-173 67.5l-1012 -2q-57 0 -111.5 26.5t-96.5 68.5t-67.5 95.5t-25.5 108.5z" />
<glyph unicode="-" horiz-adv-x="1540" d="M0 297q0 106 33 192t85 162t116.5 146.5t127.5 144.5q8 8 13.5 2t1.5 -12q-59 -59 -102.5 -111.5t-72 -109t-43 -124t-14.5 -155.5q0 -66 35 -123t90.5 -98t123 -64.5t132.5 -23.5h127q12 98 16.5 180t4.5 162t-2 167t-2 197l198 125v-831h195q12 98 16 180t4 162t-2 167 t-2 197l199 125v-829h43q74 0 148.5 -3t136 -25.5t99.5 -74t38 -149.5q0 -37 -25.5 -71.5t-61.5 -67.5t-76 -58.5t-67 -44.5q27 63 27 123q0 111 -54 178.5t-173 67.5l-1012 -2q-57 0 -111.5 26.5t-96.5 68.5t-67.5 95.5t-25.5 108.5z" />
<glyph unicode="." horiz-adv-x="1716" d="M0 297q0 106 33 192t85 162t116.5 146.5t127.5 144.5q8 8 13.5 2t1.5 -12q-59 -59 -102.5 -111.5t-72 -109t-43 -124t-14.5 -155.5q0 -66 35 -123t90.5 -98t123 -64.5t132.5 -23.5h127q12 98 16.5 180t4.5 162t-2 167t-2 197l198 125v-831h195q12 98 16 180t4 162t-2 167 t-2 197l199 125v-419l18 14h390q23 0 54.5 -2t59 -10.5t47 -25.5t19.5 -50q0 -37 -14.5 -69t-37 -59.5t-50 -51t-54.5 -43.5q6 20 6 41q0 39 -18.5 67.5t-46 47t-63.5 26.5t-68 8h-242v-303h43q74 0 148.5 -3t136 -25.5t99.5 -74t38 -149.5q0 -37 -25.5 -71.5t-61.5 -67.5 t-76 -58.5t-67 -44.5q27 63 27 123q0 111 -54 178.5t-173 67.5l-1012 -2q-57 0 -111.5 26.5t-96.5 68.5t-67.5 95.5t-25.5 108.5z" />
<glyph unicode="/" horiz-adv-x="1716" d="M0 297q0 106 33 192t85 162t116.5 146.5t127.5 144.5q8 8 13.5 2t1.5 -12q-59 -59 -102.5 -111.5t-72 -109t-43 -124t-14.5 -155.5q0 -66 35 -123t90.5 -98t123 -64.5t132.5 -23.5h127q12 98 16.5 180t4.5 162t-2 167t-2 197l198 125v-419l19 14h194q0 66 -1 134.5 t-1 145.5l199 125v-405h408q23 0 54.5 -2t59 -10.5t47 -25.5t19.5 -50q0 -37 -14.5 -69t-37 -59.5t-50 -51t-54.5 -43.5q6 20 6 41q0 39 -18.5 67.5t-46 47t-63.5 26.5t-68 8h-242v-303h43q74 0 148.5 -3t136 -25.5t99.5 -74t38 -149.5q0 -37 -25.5 -71.5t-61.5 -67.5 t-76 -58.5t-67 -44.5q27 63 27 123q0 111 -54 178.5t-173 67.5l-1012 -2q-57 0 -111.5 26.5t-96.5 68.5t-67.5 95.5t-25.5 108.5zM868 123h195q6 47 9 85t5 72.5t3 70.5t1 77h-213v-305z" />
<glyph unicode="0" horiz-adv-x="1634" d="M-129 -274q0 68 31.5 137t84 127.5t119 95.5t134.5 37h303q12 98 16 180t4 162t-2 167t-2 197l199 125v-831h479q51 0 96 21.5t80 57.5t55.5 80t20.5 91q0 100 -19.5 163.5t-57.5 108.5t-93 84t-129 92l143 158q33 -23 66 -43.5t61 -44.5q102 -82 138 -188.5t36 -231.5 q0 -37 -25.5 -87t-68.5 -102.5t-96 -102.5t-107.5 -90t-106.5 -64.5t-89 -24.5l-779 2q-53 0 -104 4t-102 4q-20 0 -47 -2t-51.5 -10t-41 -24.5t-16.5 -45.5q0 -45 25.5 -92t54.5 -78l-182 -135q-27 49 -27 103z" />
<glyph unicode="1" horiz-adv-x="1634" d="M-129 -274q0 68 31.5 137t84 127.5t119 95.5t134.5 37h303q6 55 10 99t5 85t2 83t1 91h-338q-20 0 -46.5 -2t-50.5 -10t-40 -24.5t-16 -45.5q0 -41 26.5 -71.5t53.5 -57.5l-142 -133q-27 45 -26 105q0 66 33.5 132t86 120.5t118 88t128.5 33.5h213q-2 49 -2 101.5v111.5 l199 125v-831h479q51 0 96 21.5t80 57.5t55.5 80t20.5 91q0 100 -19.5 163.5t-57.5 108.5t-93 84t-129 92l143 158q33 -23 66 -43.5t61 -44.5q102 -82 138 -188.5t36 -231.5q0 -37 -25.5 -87t-68.5 -102.5t-96 -102.5t-107.5 -90t-106.5 -64.5t-89 -24.5l-779 2 q-53 0 -104 4t-102 4q-20 0 -47 -2t-51.5 -10t-41 -24.5t-16.5 -45.5q0 -45 25.5 -92t54.5 -78l-182 -135q-27 49 -27 103z" />
<glyph unicode="2" horiz-adv-x="1089" d="M0 537q0 51 28.5 107t71.5 109.5t91.5 98.5t87.5 74q-16 -25 -35 -56.5t-34 -66.5t-25.5 -70t-10.5 -65q0 -129 23.5 -233.5t80 -178.5t150.5 -114t234 -40q76 0 127 37t80.5 93.5t42 126t12.5 137.5q0 33 -9.5 69.5t-23.5 73.5t-32.5 71.5t-37.5 61.5l170 146 q43 -59 71 -128t28 -143q0 -117 -50.5 -235.5t-135.5 -215t-195.5 -156.5t-233.5 -60q-127 0 -216 44t-147.5 119.5t-85 177t-26.5 216.5z" />
<glyph unicode="3" horiz-adv-x="1089" d="M0 537q0 51 28.5 107t71.5 109.5t91.5 98.5t87.5 74q-16 -25 -35 -56.5t-34 -66.5t-25.5 -70t-10.5 -65q0 -129 23.5 -233.5t80 -178.5t150.5 -114t234 -40q76 0 127 37t80.5 93.5t42 126t12.5 137.5q0 33 -9.5 69.5t-23.5 73.5t-32.5 71.5t-37.5 61.5l170 146 q43 -59 71 -128t28 -143q0 -98 -37 -199.5t-99.5 -189.5t-147.5 -155.5t-183 -100.5q-2 -31 -4.5 -60.5t-2.5 -60.5q0 -49 3.5 -109.5t16.5 -112.5t44 -88t86 -36q27 0 63.5 6t70.5 21.5t56.5 40t22.5 59.5q0 39 -20.5 70.5t-43.5 60.5l152 117q23 -12 47.5 -30.5 t24.5 -47.5q0 -55 -53.5 -128t-128 -139.5t-154.5 -112.5t-133 -46q-78 0 -117 34t-55.5 87t-16.5 119.5v134.5q0 51 1 100t1 99h-8q-127 0 -216 44t-147.5 119.5t-85 177t-26.5 216.5z" />
<glyph unicode="4" horiz-adv-x="1089" d="M-33 -502l148 113q23 -70 78 -104.5t126 -34.5q57 0 92 35.5t53.5 88t24 109.5t5.5 100q0 45 -3.5 88.5t-7.5 86.5h-8q-127 0 -216 44t-147.5 119.5t-85 177t-26.5 216.5q0 51 28.5 107t71.5 109.5t91.5 98.5t87.5 74q-16 -25 -35 -56.5t-34 -66.5t-25.5 -70t-10.5 -65 q0 -129 23.5 -233.5t80 -178.5t150.5 -114t234 -40q76 0 127 37t80.5 93.5t42 126t12.5 137.5q0 33 -9.5 69.5t-23.5 73.5t-32.5 71.5t-37.5 61.5l170 146q43 -59 71 -128t28 -143q0 -98 -37 -199.5t-99.5 -189.5t-147.5 -155.5t-183 -100.5v-199q0 -55 -21.5 -106 t-55.5 -96t-76 -84t-81 -72q-41 -35 -95 -46t-108 -11q-29 0 -63.5 4t-66 16t-57.5 33.5t-32 56.5z" />
<glyph unicode="5" horiz-adv-x="2002" d="M0 -328q0 86 43 142.5t111 101.5q-12 -29 -13 -55q0 -59 49.5 -94t114.5 -35q35 0 65.5 25.5t51.5 56.5l512 813q18 43 50 87t67.5 84t72.5 72.5t68 55.5q-16 -25 -34.5 -56.5t-34 -66.5t-26 -70t-10.5 -65q0 -129 24 -233.5t80 -178.5t150.5 -114t233.5 -40q76 0 127 37 t80.5 93.5t42 126t12.5 137.5q0 33 -9 69.5t-23.5 73.5t-33 71.5t-36.5 61.5l170 146q43 -59 70.5 -128t27.5 -143q0 -117 -50 -235.5t-135 -215t-196 -156.5t-233 -60q-123 0 -212.5 41.5t-146.5 114.5t-86 170t-31 210l-528 -858q-33 -53 -89 -88t-120 -35 q-29 0 -59.5 9.5t-56 26.5t-43 43t-17.5 58z" />
<glyph unicode="6" horiz-adv-x="1089" d="M0 537q0 51 28.5 107t71.5 109.5t91.5 98.5t87.5 74q-16 -25 -35 -56.5t-34 -66.5t-25.5 -70t-10.5 -65q0 -129 23.5 -233.5t80 -178.5t150.5 -114t234 -40q76 0 127 37t80.5 93.5t42 126t12.5 137.5q0 33 -9.5 69.5t-23.5 73.5t-32.5 71.5t-37.5 61.5l170 146 q43 -59 71 -128t28 -143q0 -111 -44.5 -222.5t-120 -204.5t-177 -157.5t-213.5 -78.5q-8 -31 -21.5 -70t-13.5 -68q0 -74 27.5 -118.5t71.5 -68.5t101.5 -31t118.5 -7h373q25 0 50.5 -4t48 -15.5t36.5 -29.5t14 -49q0 -35 -14 -66.5t-36.5 -58.5t-51.5 -48.5t-55 -39.5 q10 35 10 61q0 45 -25.5 71t-62.5 38t-79 15t-75 3h-358q-49 0 -93 5t-76 22.5t-51.5 51.5t-19.5 93q0 88 38 166t91 144h-8q-127 0 -216 44t-147.5 119.5t-85 177t-26.5 216.5z" />
<glyph unicode="7" horiz-adv-x="1089" d="M-33 -420l148 113q23 -68 78 -103.5t126 -35.5q37 0 67 20t52.5 52t34.5 69t12 69q0 55 -1 108.5t-1 107.5h-8q-127 0 -216 44t-147.5 119.5t-85 177t-26.5 216.5q0 51 28.5 107t71.5 109.5t91.5 98.5t87.5 74q-16 -25 -35 -56.5t-34 -66.5t-25.5 -70t-10.5 -65 q0 -129 23.5 -233.5t80 -178.5t150.5 -114t234 -40q76 0 127 37t80.5 93.5t42 126t12.5 137.5q0 33 -9.5 69.5t-23.5 73.5t-32.5 71.5t-37.5 61.5l170 146q43 -59 71 -128t28 -143q0 -98 -37 -199.5t-99.5 -189.5t-147.5 -155.5t-183 -100.5v-104q0 -37 9 -85.5t28.5 -91.5 t50 -73.5t75.5 -30.5q35 0 79 10.5t81 38.5q12 0 12 -14q0 -6 -4 -10q-72 -66 -150.5 -110t-133.5 -44q-78 0 -118 39t-54 115q-37 -43 -68 -76t-64.5 -54.5t-76.5 -31.5t-103 -10q-29 0 -63.5 4t-67 16t-57.5 33.5t-31 56.5z" />
<glyph unicode="8" horiz-adv-x="1089" d="M0 537q0 51 28.5 107t71.5 109.5t91.5 98.5t87.5 74q-16 -25 -35 -56.5t-34 -66.5t-25.5 -70t-10.5 -65q0 -129 23.5 -233.5t80 -178.5t150.5 -114t234 -40q76 0 127 37t80.5 93.5t42 126t12.5 137.5q0 33 -9.5 69.5t-23.5 73.5t-32.5 71.5t-37.5 61.5l170 146 q43 -59 71 -128t28 -143q0 -23 -2.5 -47.5t-6.5 -46.5q-4 -72 -8 -141.5t-4 -139.5q0 -63 4 -141t18.5 -157.5t40 -154.5t68.5 -133.5t104.5 -94t147.5 -35.5q27 0 57.5 3t56 14t42 32.5t16.5 56.5q0 39 -20.5 70.5t-42.5 60.5l151 117q23 -10 46.5 -30.5t23.5 -47.5 q0 -53 -40 -119.5t-98.5 -126t-125 -99.5t-119.5 -40q-170 0 -268.5 68.5t-148.5 177t-64.5 241t-14.5 261.5q-86 -96 -195.5 -155.5t-232.5 -59.5q-127 0 -216 44t-147.5 119.5t-85 177t-26.5 216.5z" />
<glyph unicode="9" horiz-adv-x="1830" d="M0 537q0 51 28.5 107t71.5 109.5t91.5 98.5t87.5 74q-16 -25 -35 -56.5t-34 -66.5t-25.5 -70t-10.5 -65q0 -129 23.5 -233.5t80 -178.5t150.5 -114t234 -40q76 0 127 37t80.5 93.5t42 126t12.5 137.5q0 33 -9.5 69.5t-23.5 73.5t-32.5 71.5t-37.5 61.5l170 146 q43 -59 71 -128t28 -143q0 -51 -2.5 -92t-2.5 -90q0 -86 27 -150.5t71 -107.5t101 -64.5t119 -21.5h104q66 0 125.5 -9.5t103.5 -35t69.5 -74.5t25.5 -129q0 -35 -22.5 -68.5t-57.5 -64.5t-75 -59.5t-74 -51.5q27 63 26 123q0 80 -21.5 129t-58.5 75t-88 35t-112 9 q-72 0 -136.5 1t-121 17.5t-104.5 56.5t-85 118q-86 -94 -194.5 -153.5t-231.5 -59.5q-127 0 -216 44t-147.5 119.5t-85 177t-26.5 216.5z" />
<glyph unicode=":" horiz-adv-x="1826" d="M0 537q0 51 28.5 107t71.5 109.5t91.5 98.5t87.5 74q-16 -25 -35 -56.5t-34 -66.5t-25.5 -70t-10.5 -65q0 -129 23.5 -233.5t80 -178.5t150.5 -114t234 -40q125 0 182 101.5t74 292.5q0 31 -3.5 74.5t-11.5 89t-19.5 86t-27.5 67.5l172 145q35 -53 45 -125.5t10 -144.5 q0 -35 -1 -66.5t-1 -60.5h445q27 0 60.5 -3t64 -14.5t51 -31.5t20.5 -57t-14 -72t-36.5 -66.5t-49.5 -59.5t-53 -50q6 20 6 45q0 39 -16.5 73.5t-44 59.5t-62.5 39t-74 14h-297q0 -86 27 -145.5t71 -97t101 -55t119 -17.5h104q66 0 125.5 -9.5t103.5 -35t69.5 -74.5 t25.5 -129q0 -35 -22.5 -68.5t-57.5 -64.5t-75 -59.5t-75 -51.5q27 63 27 123q0 80 -21.5 129t-58.5 75t-88 35t-113 9h-136t-120.5 15.5t-104.5 55t-85 117.5q-84 -94 -191.5 -152t-230.5 -58q-127 0 -216 44t-147.5 119.5t-85 177t-26.5 216.5z" />
<glyph unicode=";" horiz-adv-x="2031" d="M0 537q0 51 28.5 107t71.5 109.5t91.5 98.5t87.5 74q-16 -25 -35 -56.5t-34 -66.5t-25.5 -70t-10.5 -65q0 -129 23.5 -233.5t80 -178.5t150.5 -114t234 -40q125 0 182 102.5t74 291.5q0 31 -3.5 73.5t-11.5 87.5t-19.5 86t-27.5 68l170 145q41 -59 50 -142t9 -152 q0 -49 -2 -98.5t-2 -98.5q0 -86 26 -149.5t70 -106.5t101 -65.5t121 -22.5h82q12 98 16 180t4 163t-2 169t-2 196l199 125v-833q70 -4 130 -8t106 -24.5t73 -64.5t27 -130q0 -37 -26 -76t-61.5 -75t-75.5 -65.5t-67 -48.5q27 63 27 123q0 113 -54.5 180.5t-172.5 67.5 l-426 -2q-94 0 -169 56.5t-110 135.5q-84 -94 -191.5 -152t-230.5 -58q-127 0 -216 44t-147.5 119.5t-85 177t-26.5 216.5z" />
<glyph unicode="&#x3c;" horiz-adv-x="2031" d="M0 537q0 51 28.5 107t71.5 109.5t91.5 98.5t87.5 74q-16 -25 -35 -56.5t-34 -66.5t-25.5 -70t-10.5 -65q0 -129 23.5 -233.5t80 -178.5t150.5 -114t234 -40q125 0 182 102.5t74 291.5q0 31 -3.5 73.5t-11.5 87.5t-19.5 86t-27.5 68l170 145q41 -59 50 -142t9 -152 q0 -49 -2 -98.5t-2 -98.5q0 -86 26 -149.5t70 -106.5t101 -65.5t121 -22.5h82q12 98 16 180t4 163t-2 169t-2 196l199 125v-419l18 14h389q23 0 54.5 -2t59.5 -10.5t47.5 -25.5t19.5 -50q0 -37 -14.5 -69t-37 -59.5t-50.5 -51t-54 -43.5q6 20 6 41q0 39 -18.5 67.5t-46 47 t-63.5 26.5t-69 8h-241v-307q70 -4 130 -8t106 -24.5t73 -64.5t27 -130q0 -37 -26 -76t-61.5 -75t-75.5 -65.5t-67 -48.5q27 63 27 123q0 113 -54.5 180.5t-172.5 67.5l-426 -2q-94 0 -169 56.5t-110 135.5q-84 -94 -191.5 -152t-230.5 -58q-127 0 -216 44t-147.5 119.5 t-85 177t-26.5 216.5z" />
<glyph unicode="=" horiz-adv-x="2293" d="M0 -377q0 47 9 81t28.5 58.5t48.5 46t66 44.5q-4 -10 -6.5 -20.5t-2.5 -20.5q0 -31 5.5 -59.5t19.5 -51.5t36.5 -36t59.5 -13q25 0 46.5 9t43.5 24q127 82 242 188.5t220.5 224t203.5 242.5t190 242q2 14 11 32q-76 -59 -166 -128.5t-187.5 -140.5t-197 -136.5 t-194.5 -115.5t-181 -80.5t-156 -30.5q-53 0 -73.5 28.5t-20.5 77.5q0 84 51 136t121 83q-10 -23 -18.5 -46t-8.5 -46q0 -51 37 -72.5t80 -21.5q68 0 151 31.5t171 83t179 115t174 127t154.5 120.5t123.5 94q23 35 51 70t58 65.5t59.5 55t54.5 43.5q-16 -25 -34.5 -56.5 t-34 -66.5t-26 -70t-10.5 -65q0 -129 23.5 -233.5t80 -178.5t150.5 -114t234 -40q76 0 127 37t80.5 93.5t42 126t12.5 137.5q0 33 -9.5 69.5t-23.5 73.5t-32.5 71.5t-37.5 61.5l170 146q43 -59 71 -128t28 -143q0 -117 -50.5 -235.5t-135.5 -215t-195.5 -156.5t-233.5 -60 q-117 0 -201.5 37.5t-143 103t-89.5 153.5t-39 191q-47 -57 -128 -151.5t-180 -201t-209.5 -216t-217 -197.5t-202 -143.5t-163.5 -55.5q-57 0 -81.5 35t-24.5 88z" />
<glyph unicode="&#x3e;" horiz-adv-x="2437" d="M0 537q0 51 28.5 107t71.5 109.5t91.5 98.5t87.5 74q-16 -25 -35 -56.5t-34 -66.5t-25.5 -70t-10.5 -65q0 -129 23.5 -233.5t80 -178.5t150.5 -114t234 -40q76 0 127 37t80.5 93.5t42 126t12.5 137.5q0 33 -9.5 69.5t-23.5 73.5t-32.5 71.5t-37.5 61.5l170 146 q90 -125 152.5 -244t121 -223.5t121 -193.5t152.5 -152.5t217 -99.5t313 -36q27 0 64 10.5t69.5 29t55 46t22.5 62.5q0 37 -19 69.5t-44 61.5l131 96q23 -10 46.5 -30.5t23.5 -47.5q0 -35 -20.5 -79t-53.5 -89t-75 -88t-87 -75.5t-88 -53t-78 -20.5q-193 0 -362.5 47 t-325.5 162q61 -131 133 -231.5t162 -168t205 -101.5t262 -34q27 0 63.5 10.5t69.5 28.5t55.5 46t22.5 63q0 37 -19.5 69.5t-42.5 61.5l129 96q23 -10 46.5 -30.5t23.5 -47.5q0 -35 -20.5 -79t-53 -89t-74.5 -88t-87 -75.5t-88 -53t-78 -20.5q-236 0 -399.5 66.5t-280.5 186 t-201 285.5t-158 363q-41 -74 -98 -137.5t-124.5 -110.5t-143.5 -73.5t-156 -26.5q-127 0 -216 44t-147.5 119.5t-85 177t-26.5 216.5z" />
<glyph unicode="?" horiz-adv-x="1089" d="M0 537q0 51 28.5 107t71.5 109.5t91.5 98.5t87.5 74q-16 -25 -35 -56.5t-34 -66.5t-25.5 -70t-10.5 -65q0 -129 23.5 -233.5t80 -178.5t150.5 -114t234 -40q76 0 127 37t80.5 93.5t42 126t12.5 137.5q0 33 -9.5 69.5t-23.5 73.5t-32.5 71.5t-37.5 61.5l170 146 q43 -59 71 -128t28 -143q0 -117 -50.5 -235.5t-135.5 -215t-195.5 -156.5t-233.5 -60q-127 0 -216 44t-147.5 119.5t-85 177t-26.5 216.5zM477 389v395l123 111v-393z" />
<glyph unicode="@" horiz-adv-x="1089" d="M0 537q0 51 28.5 107t71.5 109.5t91.5 98.5t87.5 74q-16 -25 -35 -56.5t-34 -66.5t-25.5 -70t-10.5 -65q0 -129 23.5 -233.5t80 -178.5t150.5 -114t234 -40q76 0 127 37t80.5 93.5t42 126t12.5 137.5q0 33 -9.5 69.5t-23.5 73.5t-32.5 71.5t-37.5 61.5l170 146 q43 -59 71 -128t28 -143q0 -98 -37 -199.5t-99.5 -189.5t-147.5 -155.5t-183 -100.5q-2 -31 -4.5 -60.5t-2.5 -60.5q0 -49 3.5 -109.5t16.5 -112.5t44 -88t86 -36q27 0 63.5 6t70.5 21.5t56.5 40t22.5 59.5q0 39 -20.5 70.5t-43.5 60.5l152 117q23 -12 47.5 -30.5 t24.5 -47.5q0 -55 -53.5 -128t-128 -139.5t-154.5 -112.5t-133 -46q-78 0 -117 34t-55.5 87t-16.5 119.5v134.5q0 51 1 100t1 99h-8q-127 0 -216 44t-147.5 119.5t-85 177t-26.5 216.5zM477 389v395l123 111v-393z" />
<glyph unicode="A" horiz-adv-x="1089" d="M-33 -502l148 113q23 -70 78 -104.5t126 -34.5q57 0 92 35.5t53.5 88t24 109.5t5.5 100q0 45 -3.5 88.5t-7.5 86.5h-8q-127 0 -216 44t-147.5 119.5t-85 177t-26.5 216.5q0 51 28.5 107t71.5 109.5t91.5 98.5t87.5 74q-16 -25 -35 -56.5t-34 -66.5t-25.5 -70t-10.5 -65 q0 -129 23.5 -233.5t80 -178.5t150.5 -114t234 -40q76 0 127 37t80.5 93.5t42 126t12.5 137.5q0 33 -9.5 69.5t-23.5 73.5t-32.5 71.5t-37.5 61.5l170 146q43 -59 71 -128t28 -143q0 -98 -37 -199.5t-99.5 -189.5t-147.5 -155.5t-183 -100.5v-199q0 -55 -21.5 -106 t-55.5 -96t-76 -84t-81 -72q-41 -35 -95 -46t-108 -11q-29 0 -63.5 4t-66 16t-57.5 33.5t-32 56.5zM477 389v395l123 111v-393z" />
<glyph unicode="B" horiz-adv-x="2002" d="M0 -328q0 86 43 142.5t111 101.5q-12 -29 -13 -55q0 -59 49.5 -94t114.5 -35q35 0 65.5 25.5t51.5 56.5l512 813q18 43 50 87t67.5 84t72.5 72.5t68 55.5q-16 -25 -34.5 -56.5t-34 -66.5t-26 -70t-10.5 -65q0 -129 24 -233.5t80 -178.5t150.5 -114t233.5 -40q76 0 127 37 t80.5 93.5t42 126t12.5 137.5q0 33 -9 69.5t-23.5 73.5t-33 71.5t-36.5 61.5l170 146q43 -59 70.5 -128t27.5 -143q0 -117 -50 -235.5t-135 -215t-196 -156.5t-233 -60q-123 0 -212.5 41.5t-146.5 114.5t-86 170t-31 210l-528 -858q-33 -53 -89 -88t-120 -35 q-29 0 -59.5 9.5t-56 26.5t-43 43t-17.5 58zM1391 389v395l122 111v-393z" />
<glyph unicode="C" horiz-adv-x="1089" d="M0 537q0 51 28.5 107t71.5 109.5t91.5 98.5t87.5 74q-16 -25 -35 -56.5t-34 -66.5t-25.5 -70t-10.5 -65q0 -129 23.5 -233.5t80 -178.5t150.5 -114t234 -40q76 0 127 37t80.5 93.5t42 126t12.5 137.5q0 33 -9.5 69.5t-23.5 73.5t-32.5 71.5t-37.5 61.5l170 146 q43 -59 71 -128t28 -143q0 -111 -44.5 -222.5t-120 -204.5t-177 -157.5t-213.5 -78.5q-8 -31 -21.5 -70t-13.5 -68q0 -74 27.5 -118.5t71.5 -68.5t101.5 -31t118.5 -7h373q25 0 50.5 -4t48 -15.5t36.5 -29.5t14 -49q0 -35 -14 -66.5t-36.5 -58.5t-51.5 -48.5t-55 -39.5 q10 35 10 61q0 45 -25.5 71t-62.5 38t-79 15t-75 3h-358q-49 0 -93 5t-76 22.5t-51.5 51.5t-19.5 93q0 88 38 166t91 144h-8q-127 0 -216 44t-147.5 119.5t-85 177t-26.5 216.5zM477 389v395l123 111v-393z" />
<glyph unicode="D" horiz-adv-x="1089" d="M-33 -420l148 113q23 -68 78 -103.5t126 -35.5q37 0 67 20t52.5 52t34.5 69t12 69q0 55 -1 108.5t-1 107.5h-8q-127 0 -216 44t-147.5 119.5t-85 177t-26.5 216.5q0 51 28.5 107t71.5 109.5t91.5 98.5t87.5 74q-16 -25 -35 -56.5t-34 -66.5t-25.5 -70t-10.5 -65 q0 -129 23.5 -233.5t80 -178.5t150.5 -114t234 -40q76 0 127 37t80.5 93.5t42 126t12.5 137.5q0 33 -9.5 69.5t-23.5 73.5t-32.5 71.5t-37.5 61.5l170 146q43 -59 71 -128t28 -143q0 -98 -37 -199.5t-99.5 -189.5t-147.5 -155.5t-183 -100.5v-104q0 -37 9 -85.5t28.5 -91.5 t50 -73.5t75.5 -30.5q35 0 79 10.5t81 38.5q12 0 12 -14q0 -6 -4 -10q-72 -66 -150.5 -110t-133.5 -44q-78 0 -118 39t-54 115q-37 -43 -68 -76t-64.5 -54.5t-76.5 -31.5t-103 -10q-29 0 -63.5 4t-67 16t-57.5 33.5t-31 56.5zM477 389v395l123 111v-393z" />
<glyph unicode="E" horiz-adv-x="1089" d="M-33 -502l148 113q23 -70 78 -104.5t126 -34.5q57 0 92 35.5t53.5 88t24 109.5t5.5 100v175h-19q-127 0 -216 44t-147.5 119.5t-85 177t-26.5 216.5q0 51 28.5 107t71.5 109.5t91.5 98.5t87.5 74q-16 -25 -35 -56.5t-34 -66.5t-25.5 -70t-10.5 -65q0 -106 16.5 -196.5 t53.5 -161t98 -119t152 -70.5v663l122 111v-793h46q76 0 127 37t80.5 93.5t42 126t12.5 137.5q0 33 -9.5 69.5t-23.5 73.5t-32.5 71.5t-37.5 61.5l170 146q43 -59 71 -128t28 -143q0 -98 -37 -200.5t-100.5 -190.5t-149.5 -155.5t-185 -98.5l5 -199q0 -55 -21.5 -106 t-55.5 -96t-76 -84t-81 -72q-41 -35 -95 -46t-108 -11q-29 0 -63.5 4t-66 16t-57.5 33.5t-32 56.5z" />
<glyph unicode="F" horiz-adv-x="1089" d="M0 537q0 51 28.5 107t71.5 109.5t91.5 98.5t87.5 74q-10 -14 -19.5 -29.5t-19.5 -32.5l645 -596q23 53 31 111.5t8 116.5q0 33 -9.5 69.5t-23.5 73.5t-32.5 71.5t-37.5 61.5l170 146q43 -59 71 -128t28 -143q0 -117 -50.5 -235.5t-135.5 -215t-195.5 -156.5t-233.5 -60 q-127 0 -216 44t-147.5 119.5t-85 177t-26.5 216.5zM174 668q0 -129 23.5 -233.5t80 -178.5t150.5 -114t234 -40q39 0 70.5 10.5t58.5 26.5q-43 41 -118 109.5t-161 148.5t-175 160t-161 143q-2 -8 -2 -16v-16z" />
<glyph unicode="G" horiz-adv-x="1640" d="M0 537q0 51 28.5 107t71.5 109.5t91.5 98.5t87.5 74q-10 -14 -19.5 -29.5t-19.5 -32.5l645 -596q23 53 31 111.5t8 116.5q0 33 -9.5 69.5t-23.5 73.5t-32.5 71.5t-37.5 61.5l170 146q43 -59 71 -128t28 -143q0 -109 -43 -218.5t-117 -201.5l2 -2q31 -29 76 -68.5 t94 -75.5t97 -61.5t83 -25.5q78 0 136.5 42t58.5 128q0 43 -29 70.5t-55 62.5l153 117q12 -6 28.5 -17.5t31 -25t24.5 -28.5t10 -30q0 -78 -52 -156.5t-131 -142t-168 -103.5t-163 -40q-25 0 -65.5 27.5t-86.5 65.5t-88 79t-69 68q-76 -59 -163 -95t-179 -36q-127 0 -216 44 t-147.5 119.5t-85 177t-26.5 216.5zM174 668q0 -129 23.5 -233.5t80 -178.5t150.5 -114t234 -40q78 0 126 37l-4 4q-2 2 -2 4q-35 31 -106.5 97.5t-158.5 146.5t-178 163t-163 146q-2 -8 -2 -16v-16z" />
<glyph unicode="H" horiz-adv-x="1089" d="M-33 -502l148 113q23 -70 78 -104.5t126 -34.5q57 0 92 35.5t53.5 88t24 109.5t5.5 100q0 45 -3.5 88.5t-7.5 86.5h-8q-127 0 -216 44t-147.5 119.5t-85 177t-26.5 216.5q0 51 28.5 107t71.5 109.5t91.5 98.5t87.5 74q-10 -14 -19.5 -29.5t-19.5 -32.5l645 -596 q23 53 31 111.5t8 116.5q0 33 -9.5 69.5t-23.5 73.5t-32.5 71.5t-37.5 61.5l170 146q43 -59 71 -128t28 -143q0 -98 -37 -199.5t-99.5 -189.5t-147.5 -155.5t-183 -100.5v-199q0 -74 -39 -147.5t-101.5 -134t-140.5 -97t-156 -36.5q-29 0 -63.5 4t-66 16t-57.5 33.5 t-32 56.5zM174 668q0 -129 23.5 -233.5t80 -178.5t150.5 -114t234 -40q39 0 70.5 10.5t58.5 26.5q-43 41 -118 109.5t-161 148.5t-175 160t-161 143q-2 -8 -2 -16v-16z" />
<glyph unicode="I" horiz-adv-x="2002" d="M0 -328q0 86 43 142.5t111 101.5q-12 -29 -13 -55q0 -59 49.5 -94t114.5 -35q35 0 65.5 25.5t51.5 56.5l512 813q18 43 50 87t67.5 84t72.5 72.5t68 55.5q-10 -14 -19.5 -29.5t-19.5 -32.5l645 -596q23 53 31 111.5t8 116.5q0 33 -9 69.5t-23.5 73.5t-33 71.5t-36.5 61.5 l170 146q43 -59 70.5 -128t27.5 -143q0 -117 -50 -235.5t-135 -215t-196 -156.5t-233 -60q-123 0 -212.5 41.5t-146.5 114.5t-86 170t-31 210l-528 -858q-33 -53 -89 -88t-120 -35q-29 0 -59.5 9.5t-56 26.5t-43 43t-17.5 58zM1087 668q0 -129 24 -233.5t80 -178.5 t150.5 -114t233.5 -40q39 0 70.5 10.5t58.5 26.5q-43 41 -118 109.5t-161 148.5t-174.5 160t-160.5 143q-2 -8 -2.5 -16t-0.5 -16z" />
<glyph unicode="J" horiz-adv-x="1173" d="M0 537q0 51 28.5 107t71.5 109.5t91.5 98.5t87.5 74q-10 -14 -19.5 -29.5t-19.5 -32.5l645 -596q23 53 31 111.5t8 116.5q0 33 -9.5 69.5t-23.5 73.5t-32.5 71.5t-37.5 61.5l170 146q43 -59 71 -128t28 -143q0 -109 -43 -218.5t-117 -201.5l2 -2q27 -25 67.5 -65.5 t79.5 -83.5t67 -83t28 -65q0 -72 -36 -157.5t-94.5 -160.5t-135.5 -126t-156 -51q-16 0 -30.5 10t-28 24.5t-25 31t-17.5 28.5l97 133q33 -27 71.5 -45t81.5 -18q86 0 117 48t31 126q0 35 -25 82t-60.5 95t-75.5 92t-69 73h-2q-74 -61 -161 -97t-181 -36q-127 0 -216 44 t-147.5 119.5t-85 177t-26.5 216.5zM174 668q0 -129 23.5 -233.5t80 -178.5t150.5 -114t234 -40q39 0 69.5 10.5t56.5 26.5l-6 8q-35 31 -106.5 97.5t-158.5 146.5t-178 163t-163 146q-2 -8 -2 -16v-16z" />
<glyph unicode="K" horiz-adv-x="2086" d="M0 -328q0 86 43 142.5t111 101.5q-12 -29 -13 -55q0 -59 49.5 -94t114.5 -35q35 0 65.5 25.5t51.5 56.5l512 813q18 43 50 87t67.5 84t72.5 72.5t68 55.5q-10 -14 -19.5 -29.5t-19.5 -32.5l645 -596q23 53 31 111.5t8 116.5q0 33 -9 69.5t-23.5 73.5t-33 71.5t-36.5 61.5 l170 146q43 -59 70.5 -128t27.5 -143q0 -109 -43 -218.5t-117 -201.5l2 -2q27 -25 68 -65.5t80 -83.5t66.5 -83t27.5 -65q0 -72 -36 -157.5t-94.5 -160.5t-135 -126t-156.5 -51q-16 0 -30.5 10t-28 24.5t-24.5 31t-17 28.5l96 133q33 -27 72 -45t82 -18q86 0 116.5 48 t30.5 126q0 35 -24.5 82t-60.5 95t-76 92t-68 73h-2q-74 -61 -161 -97t-181 -36q-123 0 -212.5 41.5t-146.5 114.5t-86 170t-31 210l-528 -858q-33 -53 -89 -88t-120 -35q-29 0 -59.5 9.5t-56 26.5t-43 43t-17.5 58zM1087 668q0 -129 24 -233.5t80 -178.5t150.5 -114 t233.5 -40q39 0 69.5 10.5t57.5 26.5l-6 8q-35 31 -106.5 97.5t-159 146.5t-178.5 163t-162 146q-2 -8 -2.5 -16t-0.5 -16z" />
<glyph unicode="L" horiz-adv-x="1173" d="M-33 -502l148 113q23 -70 78 -104.5t126 -34.5q57 0 92 35.5t53.5 88t24 109.5t5.5 100q0 45 -3.5 88.5t-7.5 86.5h-8q-127 0 -216 44t-147.5 119.5t-85 177t-26.5 216.5q0 51 28.5 107t71.5 109.5t91.5 98.5t87.5 74q-10 -14 -19.5 -29.5t-19.5 -32.5l645 -596 q23 53 31 111.5t8 116.5q0 33 -9.5 69.5t-23.5 73.5t-32.5 71.5t-37.5 61.5l170 146q43 -59 71 -128t28 -143q0 -111 -43 -219.5t-117 -202.5h2q27 -25 67.5 -65.5t79.5 -83.5t67 -83t28 -65q0 -72 -36 -157.5t-94.5 -160.5t-135.5 -126t-156 -51q-16 0 -30.5 10t-28 24.5 t-25 31t-17.5 28.5l97 133q33 -27 71.5 -45t81.5 -18q86 0 117 48t31 126q0 35 -25 82t-60.5 95t-75.5 92t-69 73q-45 -37 -94 -66t-102 -45v-199q0 -74 -39 -147.5t-101.5 -134t-140.5 -97t-156 -36.5q-29 0 -63.5 4t-66 16t-57.5 33.5t-32 56.5zM174 668 q0 -129 23.5 -233.5t80 -178.5t150.5 -114t234 -40q39 0 69.5 10.5t56.5 26.5l-6 8q-35 31 -106.5 97.5t-158.5 146.5t-178 163t-163 146q-2 -8 -2 -16v-16z" />
<glyph unicode="M" horiz-adv-x="1089" d="M0 537q0 51 28.5 107t71.5 109.5t91.5 98.5t87.5 74q-16 -25 -35 -56.5t-34 -66.5t-25.5 -70t-10.5 -65q0 -129 23.5 -233.5t80 -178.5t150.5 -114t234 -40q76 0 127 37t80.5 93.5t42 126t12.5 137.5q0 33 -9.5 69.5t-23.5 73.5t-32.5 71.5t-37.5 61.5l170 146 q43 -59 71 -128t28 -143q0 -117 -50.5 -235.5t-135.5 -215t-195.5 -156.5t-233.5 -60q-127 0 -216 44t-147.5 119.5t-85 177t-26.5 216.5zM350 410v395l123 90v-393zM598 410v395l123 90v-393z" />
<glyph unicode="N" horiz-adv-x="1089" d="M-33 -502l148 113q23 -70 78 -104.5t126 -34.5q57 0 92 35.5t53.5 88t24 109.5t5.5 100q0 45 -3.5 88.5t-7.5 86.5h-8q-127 0 -216 44t-147.5 119.5t-85 177t-26.5 216.5q0 51 28.5 107t71.5 109.5t91.5 98.5t87.5 74q-16 -25 -35 -56.5t-34 -66.5t-25.5 -70t-10.5 -65 q0 -129 23.5 -233.5t80 -178.5t150.5 -114t234 -40q76 0 127 37t80.5 93.5t42 126t12.5 137.5q0 33 -9.5 69.5t-23.5 73.5t-32.5 71.5t-37.5 61.5l170 146q43 -59 71 -128t28 -143q0 -98 -37 -199.5t-99.5 -189.5t-147.5 -155.5t-183 -100.5v-199q0 -74 -39 -147.5 t-101.5 -134t-140.5 -97t-156 -36.5q-29 0 -63.5 4t-66 16t-57.5 33.5t-32 56.5zM350 410v395l123 90v-393zM598 410v395l123 90v-393z" />
<glyph unicode="O" horiz-adv-x="1845" d="M-145 90l145 113q23 -68 77 -104t126 -36q61 0 96 40t52.5 97.5t21.5 120t4 105.5q0 68 19.5 131.5t55 120.5t83 106.5t102.5 83.5q-16 -31 -30.5 -74.5t-25 -91t-16.5 -92.5t-6 -80q0 -96 19.5 -209.5t67.5 -212t127 -165t200 -66.5q94 0 152.5 58.5t91 141.5t45 176 t12.5 161q0 86 -28.5 185t-76.5 173l191 146q33 -45 51.5 -89.5t27.5 -89.5t11 -92t2 -100q0 -68 7 -144.5t33 -143t77 -111t141 -44.5q35 0 68.5 5.5t66.5 15.5q-25 -29 -63.5 -54.5t-81.5 -45t-87 -30.5t-81 -11q-51 0 -83 11t-51.5 34.5t-28.5 57.5t-15 81 q-35 -68 -90.5 -144.5t-125 -141t-149.5 -106.5t-162 -42q-84 0 -154.5 41t-123.5 105.5t-88 142t-49 151.5q-47 -45 -79 -81t-67 -61.5t-79 -38.5t-115 -13q-29 0 -64 4t-67.5 16t-56 33.5t-29.5 56.5z" />
<glyph unicode="P" horiz-adv-x="1976" d="M0 537q0 49 28.5 106t71.5 110.5t91.5 98.5t87.5 74q-16 -25 -36 -56.5t-35 -66.5t-25.5 -70t-10.5 -65q0 -129 23.5 -233.5t81 -178.5t151.5 -114t234 -40q59 0 106 28t81 73t51.5 100t17.5 109v518l167 49q-2 -49 -2 -99.5v-99.5q0 -137 11.5 -260t58.5 -216 t141.5 -147.5t257.5 -54.5q74 0 123 31t80 85t43 130t12 166q0 33 -12 70t-30.5 73.5t-40 71.5t-39.5 62l190 124q43 -59 70.5 -127.5t27.5 -142.5q0 -117 -49 -234.5t-133 -214t-194.5 -156.5t-233.5 -60q-145 0 -253.5 67.5t-166.5 202.5q-41 -55 -93 -104.5t-112.5 -86 t-127 -58t-138.5 -21.5q-127 0 -217 44t-147.5 119.5t-84 177t-26.5 216.5z" />
<glyph unicode="Q" horiz-adv-x="1976" d="M0 537q0 49 28.5 106t71.5 110.5t91.5 98.5t87.5 74q-16 -25 -36 -56.5t-35 -66.5t-25.5 -70t-10.5 -65q0 -129 23.5 -233.5t81 -178.5t151.5 -114t234 -40q55 0 101 25t80 64.5t53 90t19 101.5l3 547l167 49v-334q0 -115 19.5 -214t71 -172t142.5 -115t234 -42 q74 0 123 31t80 85t43 130t12 166q0 33 -12 70t-30.5 73.5t-40 71.5t-39.5 62l190 124q43 -59 70.5 -127.5t27.5 -142.5q0 -117 -49 -234.5t-133 -214t-194.5 -156.5t-233.5 -60q-156 0 -270 77q4 -86 9 -176t10 -173t12.5 -153.5t13.5 -115.5q-25 -20 -56.5 -46 t-65.5 -50.5t-69 -46t-63 -31.5q4 41 9 92t9 150.5t7 265.5t3 438q-84 -96 -197.5 -163.5t-242.5 -67.5q-127 0 -217 44t-147.5 119.5t-84 177t-26.5 216.5z" />
<glyph unicode="R" horiz-adv-x="1976" d="M0 537q0 49 28.5 106t71.5 110.5t91.5 98.5t87.5 74q-16 -25 -36 -56.5t-35 -66.5t-25.5 -70t-10.5 -65q0 -129 23.5 -233.5t81 -178.5t151.5 -114t234 -40q59 0 106 28t81 73t51.5 100t17.5 109v518l167 49q-2 -49 -2 -99.5v-99.5q0 -137 11.5 -260t58.5 -216 t141.5 -147.5t257.5 -54.5q74 0 123 31t80 85t43 130t12 166q0 33 -12 70t-30.5 73.5t-40 71.5t-39.5 62l190 124q43 -59 70.5 -127.5t27.5 -142.5q0 -117 -49 -234.5t-133 -214t-194.5 -156.5t-233.5 -60q-88 0 -163 24.5t-134 75.5l-6 -277q-2 -74 -42 -147.5t-101.5 -134 t-138 -97t-154.5 -36.5q-29 0 -65 4t-67.5 16t-56 33.5t-30.5 56.5l147 113q23 -70 77 -104.5t126 -34.5q59 0 94 35.5t52.5 88t22.5 109.5t5 100v58.5t-1 104t-2 128t-3 129.5q-43 -51 -93.5 -95t-107.5 -78t-119.5 -53t-130.5 -19q-127 0 -217 44t-147.5 119.5t-84 177 t-26.5 216.5z" />
<glyph unicode="S" horiz-adv-x="2893" d="M0 -328q0 86 43 142.5t111 101.5q-12 -30 -12 -56q0 -10 2 -19q6 -34 28.5 -58.5t57 -37.5t75.5 -13q35 0 65.5 25.5t51.5 56.5l551 874q45 72 108.5 136.5t114.5 101.5q-16 -25 -35.5 -56.5t-35 -66.5t-25.5 -70t-10 -65q0 -129 23.5 -233.5t80.5 -178.5t151.5 -114 t233.5 -40q18 0 42 7.5t47.5 17.5t44 23.5t34.5 25.5q18 16 33.5 46t28 65t19.5 68.5t7 56.5v518l168 49q-2 -49 -2 -99.5v-99.5q0 -137 11 -260t58.5 -216t141.5 -147.5t258 -54.5q74 0 123 31t79.5 85t43 130t12.5 166q0 33 -12.5 70t-31 73.5t-40 71.5t-39.5 62l191 124 q43 -59 70.5 -127.5t27.5 -142.5q0 -117 -49 -234.5t-133 -214t-195 -156.5t-233 -60q-145 0 -254 67.5t-166 202.5q-41 -55 -93.5 -104.5t-113 -86t-127 -58t-137.5 -21.5q-125 0 -214 41.5t-146.5 115.5t-85 172.5t-29.5 210.5l-533 -862q-33 -53 -89 -88t-120 -35 q-29 0 -59.5 9.5t-56 26.5t-43 43t-17.5 58z" />
<glyph unicode="T" horiz-adv-x="2516" d="M0 537q0 49 28.5 106t71.5 110.5t91.5 98.5t87.5 74q-16 -25 -36 -56.5t-35 -66.5t-25.5 -70t-10.5 -65q0 -129 23.5 -233.5t81 -178.5t151.5 -114t234 -40q59 0 106 28t81 73t51.5 100t17.5 109v518l167 49q-2 -49 -2 -99.5v-99.5q0 -137 11.5 -257t58.5 -209 t141.5 -140t257.5 -51q72 0 121 31.5t80 84t44 118t13 135.5q0 31 -3 74.5t-11 88.5t-19.5 86t-27.5 68l172 143q41 -59 49 -141t8 -152q0 -51 -2 -99t-2 -97q0 -86 27 -150.5t71 -107.5t101 -64.5t119 -21.5h104q66 0 125 -9.5t103.5 -35t70 -74.5t25.5 -129 q0 -35 -22.5 -68.5t-57.5 -64.5t-75 -59.5t-75 -51.5q27 63 27 123q0 80 -21.5 129t-58.5 75t-88 35t-113 9q-72 0 -136 1t-120.5 17.5t-104.5 56.5t-85 117q-84 -88 -192.5 -149t-231.5 -61q-145 0 -253.5 67.5t-166.5 202.5q-41 -55 -93 -104.5t-112.5 -86t-127 -58 t-138.5 -21.5q-127 0 -217 44t-147.5 119.5t-84 177t-26.5 216.5z" />
<glyph unicode="U" horiz-adv-x="2516" d="M0 537q0 49 28.5 106t71.5 110.5t91.5 98.5t87.5 74q-16 -25 -36 -56.5t-35 -66.5t-25.5 -70t-10.5 -65q0 -129 23.5 -233.5t81 -178.5t151.5 -114t234 -40q59 0 106 28t81 73t51.5 100t17.5 109v518l167 49q-2 -49 -2 -99.5v-99.5q0 -137 11.5 -257t58.5 -209 t141.5 -140t257.5 -51q72 0 121 31.5t80 84t44 118t13 135.5q0 31 -3 74.5t-11 88.5t-19.5 86t-27.5 68l172 149q27 -39 38 -89t15 -104q3 -43 3 -85v-22q-1 -52 -1 -97h443q27 0 60.5 -3t64 -14.5t51 -31.5t20.5 -57t-14 -72t-36.5 -66.5t-49.5 -59.5t-53 -50q6 20 6 45 q0 39 -16.5 73.5t-44 59.5t-62.5 39t-74 14h-297q0 -86 27 -145.5t71 -97t101 -55t119 -17.5h104q66 0 125 -9.5t103.5 -35t70 -74.5t25.5 -129q0 -35 -22.5 -68.5t-57.5 -64.5t-75 -59.5t-75 -51.5q27 63 27 123q0 80 -21.5 129t-58.5 75t-88 35t-113 9h-136t-120.5 15.5 t-104.5 55.5t-85 117q-84 -88 -192.5 -149t-231.5 -61q-145 0 -253.5 67.5t-166.5 202.5q-41 -55 -93 -104.5t-112.5 -86t-127 -58t-138.5 -21.5q-127 0 -217 44t-147.5 119.5t-84 177t-26.5 216.5z" />
<glyph unicode="V" horiz-adv-x="1976" d="M0 537q0 49 28.5 106t71.5 110.5t91.5 98.5t87.5 74q-16 -25 -36 -56.5t-35 -66.5t-25.5 -70t-10.5 -65q0 -129 23.5 -233.5t81 -178.5t151.5 -114t234 -40q59 0 106 28t81 73t51.5 100t17.5 109v518l167 49q-2 -49 -2 -99.5v-99.5q0 -137 11.5 -260t58.5 -216 t141.5 -147.5t257.5 -54.5q74 0 123 31t80 85t43 130t12 166q0 33 -12 70t-30.5 73.5t-40 71.5t-39.5 62l192 120q41 -59 68.5 -127.5t27.5 -140.5q0 -94 -7 -187.5t-7 -187.5q0 -63 4 -142t18.5 -159t40 -154.5t68.5 -133t104.5 -94.5t147.5 -36q27 0 57.5 4.5t56 15.5 t42 31.5t16.5 55.5q0 39 -20.5 71.5t-42.5 61.5l151 115q23 -10 46.5 -29.5t23.5 -48.5q0 -53 -40 -119.5t-98.5 -126t-125 -99.5t-119.5 -40q-115 0 -195 31.5t-135 87t-88 129t-50.5 157.5t-22.5 174.5t-5 176.5q-84 -90 -193.5 -153.5t-236.5 -63.5q-145 0 -253.5 67.5 t-166.5 202.5q-41 -55 -93 -104.5t-112.5 -86t-127 -58t-138.5 -21.5q-127 0 -217 44t-147.5 119.5t-84 177t-26.5 216.5z" />
<glyph unicode="W" horiz-adv-x="2893" d="M0 -328q0 86 44 142.5t112 101.5q-13 -30 -13 -55q0 -10 2 -20q7 -34 29.5 -58.5t57 -37.5t73.5 -13q37 0 67.5 25.5t51.5 56.5l549 874q45 72 109.5 136.5t113.5 101.5q-16 -25 -34.5 -56.5t-34 -66.5t-25.5 -70t-10 -65q0 -129 23.5 -233.5t80.5 -178.5t150.5 -114 t234.5 -40q57 0 105.5 28t81 73t51 100t18.5 109v518l166 49q0 -49 -1 -99.5t-1 -99.5q0 -137 12 -260t59.5 -216t141.5 -147.5t258 -54.5q74 0 123 31t78.5 85t43 130t13.5 166q0 33 -12.5 70t-30.5 73.5t-39.5 71.5t-40.5 62l191 124q43 -59 69.5 -126.5t26.5 -141.5 q0 -94 -7.5 -187t-7.5 -188q0 -63 5.5 -141t18.5 -157.5t40 -155.5t69 -134.5t104 -94t149 -35.5q27 0 56.5 4t55 15t41.5 31.5t16 55.5q0 39 -19 71.5t-42 61.5l150 115q23 -10 47 -29.5t24 -48.5q0 -53 -40 -119.5t-99 -126t-126 -99.5t-120 -40q-170 0 -268 69.5 t-148.5 179t-64.5 244t-14 265.5q-84 -92 -192.5 -155.5t-235.5 -63.5q-147 0 -255 65.5t-167 200.5q-41 -55 -93.5 -104.5t-112 -86t-126 -58t-137.5 -21.5q-125 0 -214 41.5t-146.5 115.5t-85 172.5t-29.5 210.5l-535 -862q-33 -53 -88 -88t-119 -35q-29 0 -60.5 9.5 t-57 26.5t-43 43t-17.5 58z" />
<glyph unicode="X" horiz-adv-x="2893" d="M0 -328q0 86 44 142.5t112 101.5q-13 -30 -13 -55q0 -10 2 -20q7 -34 29.5 -58.5t57 -37.5t73.5 -13q37 0 67.5 25.5t51.5 56.5l549 874q45 72 109.5 136.5t113.5 101.5q-16 -25 -34.5 -56.5t-34 -66.5t-25.5 -70t-10 -65q0 -129 23.5 -233.5t80.5 -178.5t150.5 -114 t234.5 -40q55 0 101.5 25t80 64.5t53 90t19.5 101.5l2 547l168 49v-334q0 -115 19.5 -214t70.5 -172t142.5 -115t234.5 -42q74 0 123 31t78.5 85t43 130t13.5 166q0 33 -12.5 70t-30.5 73.5t-39.5 71.5t-40.5 62l191 124q43 -59 69.5 -126.5t26.5 -141.5q0 -94 -7.5 -187 t-7.5 -188q0 -63 5.5 -141t18.5 -157.5t40 -155.5t69 -134.5t104 -94t149 -35.5q27 0 56.5 4t55 15t41.5 31.5t16 55.5q0 39 -19 71.5t-42 61.5l150 115q23 -10 47 -29.5t24 -48.5q0 -53 -40 -119.5t-99 -126t-126 -99.5t-120 -40q-170 0 -268 69.5t-148.5 179t-64.5 244 t-14 265.5q-84 -92 -192.5 -155.5t-235.5 -63.5q-14 -1 -27 -1q-63 0 -119 16q-68 19 -125 58q4 -86 9.5 -176t10.5 -173t12 -153.5t13 -115.5q-25 -20 -56.5 -46t-65 -50.5t-68.5 -46t-64 -31.5q4 41 9.5 92t9.5 150.5t7 265.5t3 438q-84 -96 -197.5 -163.5t-242.5 -67.5 q-125 0 -214 41.5t-146.5 115.5t-85 172.5t-29.5 210.5l-535 -862q-33 -53 -88 -88t-119 -35q-29 0 -60.5 9.5t-57 26.5t-43 43t-17.5 58z" />
<glyph unicode="Y" horiz-adv-x="2500" d="M-4 326q0 86 54 152.5t122 111.5q-8 -16 -8 -39q0 -25 3 -51.5t13 -48t29.5 -36t52.5 -14.5q31 0 87.5 47.5t116.5 108.5t113.5 118.5t77.5 80.5q59 78 144 135q-35 -86 -54.5 -168t-19.5 -160q0 -96 29.5 -180t90 -145.5t152 -95t215.5 -33.5q76 0 125.5 34.5t78 88 t39.5 118t11 123.5l2 459l168 47v-385q0 -100 22.5 -188.5t76 -155t143.5 -104t225 -37.5q29 0 66 17t61 30v673l207 125v-1433q-25 -20 -54.5 -43t-60 -44.5t-62.5 -40t-60 -28.5q23 145 27.5 289.5t4.5 290.5v153q-70 -49 -149.5 -80.5t-165.5 -31.5q-150 0 -270 75 q4 -86 9 -177t10 -175t12.5 -154.5t13.5 -115.5q-25 -20 -56.5 -46t-65.5 -50.5t-69 -46t-63 -31.5q4 41 9 92t9 150.5t7 266.5t3 439q-86 -94 -197.5 -161.5t-242.5 -67.5q-115 0 -203 39.5t-148.5 105.5t-92 151t-31.5 175q0 39 5 81t15 82l-266 -284q-39 -41 -93 -80 t-114 -39q-49 0 -76.5 32t-27.5 79z" />
<glyph unicode="Z" horiz-adv-x="1060" d="M0 455q0 123 59.5 240.5t188.5 197.5q-37 -86 -55.5 -169t-18.5 -161q0 -96 29.5 -180t90 -145.5t152 -96.5t216.5 -35q14 0 36.5 5.5t43 12.5t35 15t14.5 17v673l208 125v-1454q-51 -41 -115.5 -87t-123.5 -68q18 125 24.5 257t6.5 261v235q-70 -49 -150 -81.5 t-166 -32.5q-115 0 -203 39.5t-148.5 105.5t-92 151t-31.5 175z" />
<glyph unicode="[" horiz-adv-x="1060" d="M-49 -461q0 86 54 152.5t122 111.5q-10 -20 -10 -39q0 -25 3 -51t14 -47.5t30.5 -36t52.5 -14.5q29 0 51.5 12.5t42.5 30.5l480 430v10q-70 -49 -150 -81.5t-166 -32.5q-115 0 -203 39.5t-148.5 105.5t-92 151t-31.5 175q0 123 59.5 240.5t188.5 197.5 q-37 -86 -55.5 -169t-18.5 -161q0 -96 29.5 -180t90 -145.5t152 -96.5t216.5 -35q14 0 36.5 5.5t43 12.5t35 15t14.5 17v673l206 125l2 -1454q-51 -41 -115.5 -87t-123.5 -68q18 125 24.5 257t6.5 261v164l-527 -478q-43 -39 -101.5 -76.5t-117.5 -37.5q-47 0 -70.5 29.5 t-23.5 74.5z" />
<glyph unicode="\" horiz-adv-x="1617" d="M0 326q0 86 54.5 152.5t121.5 111.5q-8 -16 -8 -39q0 -25 3 -51.5t13.5 -48t29.5 -36t52 -14.5q31 0 87.5 47.5t116.5 108.5t113.5 118.5t78.5 80.5q59 78 143 135q-35 -86 -54.5 -168t-19.5 -160q0 -96 30 -180t90 -145.5t151.5 -96.5t216.5 -35q14 0 36.5 5.5t43 12.5 t35 15t14.5 17v673l208 125v-1454q-51 -41 -115.5 -87t-123.5 -68q18 125 24.5 257t6.5 261v235q-70 -49 -150 -81.5t-166 -32.5q-115 0 -203 39.5t-148 105.5t-92 151t-32 175q0 39 5 81t16 82l-267 -284q-39 -41 -93 -80t-114 -39q-49 0 -76.5 32t-27.5 79z" />
<glyph unicode="]" horiz-adv-x="1060" d="M0 455q0 123 59.5 240.5t188.5 197.5q-37 -86 -55.5 -169t-18.5 -161q0 -96 29.5 -180t90 -145.5t152 -96.5t216.5 -35q14 0 36.5 5.5t43 12.5t35 15t14.5 17v673l208 125v-1454q-51 -41 -115.5 -87t-123.5 -68q18 125 24.5 257t6.5 261v235q-70 -49 -150 -81.5 t-166 -32.5h-29q-2 -33 -3 -67t-1 -69q0 -43 3.5 -85t18.5 -75.5t45 -54t85 -20.5q49 0 94 22q-16 -25 -38.5 -54.5t-49.5 -56t-57.5 -44t-63.5 -17.5q-55 0 -89 18.5t-52.5 48.5t-24.5 70t-6 83q0 39 2 77.5t2 73.5v174q-76 25 -133 70t-97 104.5t-60.5 129t-20.5 143.5z " />
<glyph unicode="^" horiz-adv-x="1060" d="M0 455q0 123 59.5 240.5t188.5 197.5l543 -502v438l208 125v-1454q-51 -41 -115.5 -87t-123.5 -68q18 125 24.5 257t6.5 261v235q-70 -49 -150 -81.5t-166 -32.5q-115 0 -203 39.5t-148.5 105.5t-92 151t-31.5 175zM174 592q0 -113 26.5 -203t85 -152.5t150.5 -96.5 t226 -34q14 0 36.5 5.5t43 12.5t35 15t14.5 17v18q-35 31 -107 98.5t-160 148.5t-179 164t-163 146v-2q-4 -35 -6 -69.5t-2 -67.5z" />
<glyph unicode="_" horiz-adv-x="1779" d="M0 455q0 131 63.5 249.5t186.5 190.5q-76 -174 -76 -330q0 -96 28.5 -180t88 -145.5t150.5 -97.5t216 -36q14 0 36 5.5t44.5 13.5t41 18.5t26.5 22.5q-43 66 -64.5 139.5t-21.5 147.5q0 131 63.5 249.5t186.5 190.5q-76 -174 -76 -330q0 -96 29.5 -179t90 -144.5 t151.5 -97.5t216 -36q14 0 37 5.5t43.5 12.5t34.5 15t14 17v673l209 125v-1454q-51 -41 -115.5 -87t-123.5 -68q18 125 24 257t6 261v235q-70 -49 -149.5 -81.5t-165.5 -32.5q-104 0 -199.5 33.5t-165.5 115.5q-76 -66 -167 -107.5t-191 -41.5q-113 0 -201 39.5 t-147.5 105.5t-91 151t-31.5 175z" />
<glyph unicode="`" horiz-adv-x="1779" d="M0 455q0 131 63.5 249.5t186.5 190.5q-76 -174 -76 -330q0 -96 28.5 -180t88 -145.5t150.5 -97.5t216 -36q14 0 36 5.5t44.5 13.5t41 18.5t26.5 22.5q-43 66 -64.5 139.5t-21.5 147.5q0 131 63.5 249.5t186.5 190.5q-76 -174 -76 -330q0 -96 29.5 -179t90 -144.5 t151.5 -97.5t216 -36q14 0 37 5.5t43.5 12.5t34.5 15t14 17v673l209 125v-1454q-51 -41 -115.5 -87t-123.5 -68q18 125 24 257t6 261v164l-526 -478q-43 -39 -101.5 -76.5t-117.5 -37.5q-47 0 -70.5 29.5t-23.5 74.5q0 86 54 152.5t122 111.5q-10 -20 -10 -39q0 -25 3 -51 t14 -47.5t30.5 -36t52.5 -14.5q29 0 51.5 12.5t42.5 30.5l479 430v10q-70 -49 -149.5 -81.5t-165.5 -32.5q-104 0 -199.5 33.5t-165.5 115.5q-76 -66 -167 -107.5t-191 -41.5q-113 0 -201 39.5t-147.5 105.5t-91 151t-31.5 175z" />
<glyph unicode="a" horiz-adv-x="2336" d="M0 326q0 86 54.5 152.5t121.5 111.5q-8 -16 -8 -39q0 -25 3 -51.5t13.5 -48t29.5 -36t52 -14.5q31 0 87.5 47.5t116.5 108.5t113.5 118.5t78.5 80.5q59 78 143 135q-35 -86 -54.5 -168t-19.5 -160q0 -96 28.5 -179t88 -144.5t151 -97.5t215.5 -36q14 0 36 5.5t44.5 13.5 t41 18.5t26.5 22.5q-43 66 -64.5 139.5t-21.5 147.5q0 131 63.5 249.5t186.5 190.5q-76 -174 -76 -330q0 -96 29.5 -179t90 -144.5t151.5 -97.5t216 -36q14 0 37 5.5t43.5 12.5t34.5 15t14 17v673l209 125v-1454q-51 -41 -115.5 -87t-123.5 -68q18 125 24 257t6 261v235 q-70 -49 -149.5 -81.5t-165.5 -32.5q-104 0 -199.5 33.5t-165.5 115.5q-76 -66 -167 -107.5t-191 -41.5q-113 0 -201 39.5t-147 105.5t-91 151t-32 175q0 39 5 81t16 82l-267 -284q-39 -41 -93 -80t-114 -39q-49 0 -76.5 32t-27.5 79z" />
<glyph unicode="b" horiz-adv-x="1779" d="M0 455q0 131 63.5 249.5t186.5 190.5q-76 -174 -76 -330q0 -96 28.5 -180t88 -145.5t150.5 -97.5t216 -36q14 0 36 5.5t44.5 13.5t41 18.5t26.5 22.5q-43 66 -64.5 139.5t-21.5 147.5q0 131 63.5 249.5t186.5 190.5q-76 -174 -76 -330q0 -96 29.5 -179t90 -144.5 t151.5 -97.5t216 -36q14 0 37 5.5t43.5 12.5t34.5 15t14 17v673l209 125v-1454q-51 -41 -115.5 -87t-123.5 -68q18 125 24 257t6 261v235q-70 -49 -149.5 -81.5t-165.5 -32.5q-104 0 -199.5 33.5t-165.5 115.5q-76 -66 -165 -107.5t-189 -41.5h-29q-2 -33 -3 -67t-1 -69 q0 -43 3.5 -85t18.5 -75.5t45 -54t85 -20.5q49 0 94 22q-16 -25 -38.5 -54.5t-49.5 -56t-57.5 -44t-63.5 -17.5q-55 0 -89 18.5t-52.5 48.5t-24.5 70t-6 83q0 39 2 77.5t2 73.5v174q-76 25 -133 70t-97 104.5t-60.5 129t-20.5 143.5z" />
<glyph unicode="c" horiz-adv-x="1779" d="M0 455q0 131 63.5 249.5t186.5 190.5q-76 -174 -76 -330q0 -96 28.5 -180t88 -145.5t150.5 -97.5t216 -36q14 0 36 5.5t44.5 13.5t41 18.5t26.5 22.5q-43 66 -64.5 139.5t-21.5 147.5q0 131 62.5 248.5t185.5 189.5l542 -500v438l209 125v-1454q-51 -41 -115.5 -87 t-123.5 -68q18 125 24 257t6 261v235q-70 -49 -149.5 -81.5t-165.5 -32.5q-104 0 -199.5 33.5t-165.5 115.5q-76 -66 -167 -107.5t-191 -41.5q-113 0 -201 39.5t-147.5 105.5t-91 151t-31.5 175zM893 592q0 -113 26.5 -203t85 -152.5t150.5 -96.5t225 -34q14 0 37 5.5 t43.5 12.5t34.5 15t14 17v18q-35 31 -106.5 98.5t-159.5 148.5t-179 164t-163 146v-2q-4 -35 -6 -69.5t-2 -67.5zM967 891v2h2z" />
<glyph unicode="d" horiz-adv-x="1060" d="M0 -166q0 82 26.5 162t79.5 151q-53 63 -79.5 142.5t-26.5 165.5q0 123 59.5 240.5t188.5 197.5q-37 -86 -55.5 -169t-18.5 -161q0 -96 29.5 -180t90 -145.5t152 -96.5t216.5 -35q14 0 36.5 5.5t43 12.5t35 15t14.5 17v673l208 125v-1839q-51 -41 -115.5 -87t-123.5 -68 q18 125 24.5 257t6.5 261q-70 -49 -150 -82t-166 -33q-115 0 -203 40t-148.5 105.5t-92 150.5t-31.5 175zM174 -57q0 -96 29.5 -180.5t90 -145.5t152 -96t216.5 -35q14 0 34.5 4t40 11t34.5 15.5t20 16.5v565q-70 -49 -150 -81.5t-166 -32.5q-88 0 -159.5 23.5t-129.5 64.5 q-12 -68 -12 -129z" />
<glyph unicode="e" horiz-adv-x="1110" d="M-49 -1081q0 86 54 152.5t122 111.5q-10 -20 -10 -39q0 -25 3 -51.5t14 -48t30.5 -36t52.5 -14.5q29 0 51.5 12.5t42.5 30.5l480 431v10q-70 -49 -150 -82t-166 -33q-115 0 -203 40t-148.5 105.5t-92 150.5t-31.5 175q0 82 26.5 162t79.5 151q-53 63 -79.5 142.5 t-26.5 165.5q0 123 59.5 240.5t188.5 197.5q-37 -86 -55.5 -169t-18.5 -161q0 -96 29.5 -180t90 -145.5t152 -96.5t216.5 -35q14 0 36.5 5.5t43 12.5t35 15t14.5 17v673l208 125v-1839q-51 -41 -115.5 -87t-123.5 -68q16 109 22 222t9 224l-527 -477q-43 -39 -101.5 -77 t-117.5 -38q-47 0 -70.5 30t-23.5 75zM174 -57q0 -96 29.5 -180.5t90 -145.5t152 -96t216.5 -35q14 0 35.5 5t42 12.5t34.5 15.5t17 16v563q-70 -49 -150 -81.5t-166 -32.5q-88 0 -159.5 23.5t-129.5 64.5q-12 -68 -12 -129z" />
<glyph unicode="f" horiz-adv-x="1060" d="M0 -166q0 82 26.5 162t79.5 151q-53 63 -79.5 142.5t-26.5 165.5q0 123 59.5 240.5t188.5 197.5q-37 -86 -55.5 -169t-18.5 -161q0 -96 29.5 -180t90 -145.5t152 -96.5t216.5 -35q14 0 36.5 5.5t43 12.5t35 15t14.5 17v673l208 125v-2459q-51 -41 -115.5 -87t-123.5 -69 q18 125 24.5 257t6.5 261q-70 -49 -150 -81.5t-166 -32.5q-115 0 -203 39.5t-148.5 105t-92 150.5t-31.5 176q0 82 26.5 162.5t79.5 150.5q-53 66 -79.5 143.5t-26.5 163.5zM174 -57q0 -96 29.5 -180.5t90 -145.5t152 -96t216.5 -35q12 0 31.5 4t39 10t34.5 14.5t21 16.5 l-2 563q-70 -47 -147.5 -78.5t-163.5 -31.5q-88 0 -159.5 23.5t-129.5 64.5q-12 -68 -12 -129zM174 -678q0 -96 29.5 -180t90 -145.5t152 -96.5t216.5 -35q14 0 34.5 4.5t40 11.5t34.5 15t20 17l-3 565q-70 -49 -148.5 -82t-164.5 -33q-88 0 -159.5 24.5t-129.5 65.5 q-12 -68 -12 -131zM788 96l3 -2v4q-2 0 -3 -2z" />
<glyph unicode="g" horiz-adv-x="1060" d="M0 78q0 49 21.5 113.5t59.5 132t87 133t104.5 117t112.5 83t111 31.5q14 0 29.5 -10t29.5 -23.5t25.5 -29t17.5 -27.5l-98 -131q-35 25 -74 43t-82 18t-78 -22.5t-60.5 -56t-38.5 -74.5t-13 -78q0 -63 24.5 -130t67.5 -122t101.5 -90t127.5 -35q43 0 87 16.5t86 41t78 55 t65 61.5v735l208 125v-1454q-51 -41 -115.5 -87t-123.5 -68q23 156 28 320.5t5 322.5v43q-53 -53 -104.5 -100.5t-107 -82t-120 -55t-144.5 -20.5q-57 0 -113.5 25.5t-101.5 68.5t-73.5 98t-28.5 113z" />
<glyph unicode="h" horiz-adv-x="1046" d="M0 -86q0 49 13.5 85t37 65.5t55 53t70.5 46.5q-8 -16 -8 -41q0 -31 5 -59.5t19.5 -52t37 -38t59.5 -14.5q23 0 63.5 23.5t87.5 59.5t98.5 81t98.5 88t84 79t55 56v483l209 125v-1454q-51 -41 -115.5 -87t-124.5 -68q23 141 28 292.5t5 292.5l-2 338 q-104 -104 -217 -199.5t-227 -191.5q-45 -39 -98.5 -66.5t-114.5 -27.5q-59 0 -89 38t-30 93z" />
<glyph unicode="i" horiz-adv-x="815" d="M0 -119q0 86 54.5 144.5t123.5 99.5q-8 -23 -8 -53q0 -45 23.5 -80t72.5 -35q29 0 68 27.5t79 65.5t74.5 75t57.5 55v367l-209 -213q-41 -41 -97.5 -74t-115.5 -33q-49 0 -76 31t-27 78q0 86 54.5 152.5t122.5 111.5q-4 -10 -6.5 -19.5t-2.5 -19.5q0 -25 3.5 -51.5 t13.5 -48t29.5 -34.5t52.5 -13q27 0 62.5 23.5t71.5 55t68.5 63.5t55.5 50v223l209 125v-1454q-51 -41 -116 -87t-124 -68q18 125 24.5 257t6.5 261v260l-232 -244q-39 -41 -94 -74.5t-115 -33.5q-49 0 -76.5 31.5t-27.5 78.5z" />
<glyph unicode="j" horiz-adv-x="815" d="M0 106q29 47 83 99.5t101 83.5q-2 -8 -2 -23q0 -35 24.5 -57.5t59.5 -22.5q29 0 68 28t78 64.5t74.5 73.5t58.5 56v272l-232 -242q-39 -41 -94 -74.5t-115 -33.5q-47 0 -75.5 29.5t-28.5 76.5q29 49 83 101.5t101 80.5q-2 -6 -2 -22q0 -35 24.5 -57.5t59.5 -22.5 q29 0 68 27.5t78 64.5t74.5 75t58.5 56v90l209 125v-1454q-51 -41 -116 -87t-124 -68q18 125 24.5 257t6.5 261v157l-232 -243q-39 -41 -94 -75t-115 -34q-47 0 -75.5 30t-28.5 77q29 49 83 101t101 83q-2 -8 -2 -22q0 -35 24.5 -58.5t59.5 -23.5q29 0 68 27.5t78 64.5 t74.5 74.5t58.5 56.5v272l-232 -244q-39 -41 -94 -74.5t-115 -33.5q-47 0 -75.5 30.5t-28.5 77.5z" />
<glyph unicode="k" horiz-adv-x="798" d="M0 238q0 72 19.5 126t55.5 97t84 77.5t105 67.5q41 23 85 36t91 13q20 0 41 -4t45 -14v192l211 125v-1454q-51 -41 -116.5 -87t-124.5 -68q12 82 18 174t10 174l-16 -12q-53 -53 -124 -80t-148 -27q-39 0 -81 8t-76 27.5t-56.5 52.5t-22.5 80q0 119 53 192.5t148 137.5 q-35 4 -71 15t-64.5 30.5t-47 48.5t-18.5 72zM158 -145q0 -39 13 -75t36.5 -63.5t57.5 -45t75 -17.5q100 0 143 63.5t43 155.5v193q-20 18 -46.5 26t-55.5 8q-113 0 -189.5 -64.5t-76.5 -180.5zM158 350q0 -39 13 -74.5t36.5 -63.5t57.5 -45t75 -17q18 0 45 7t54.5 17 t51 24.5t35.5 28.5v99q0 45 -8 88t-29.5 76.5t-56.5 55t-86 21.5q-49 0 -84 -17.5t-58.5 -47t-34.5 -68.5t-11 -84z" />
<glyph unicode="l" horiz-adv-x="1230" d="M0 324l166 41q2 -35 5 -90.5t16.5 -107.5t40 -90t75.5 -38q43 0 78 17.5t58.5 47t36.5 66.5t13 78q0 18 -3 36.5t-7 39.5l166 41q2 -35 6 -90.5t17.5 -107.5t40 -90t75.5 -38q78 0 128.5 52t50.5 128l-2 610l208 125v-1454q-25 -20 -54.5 -42.5t-61 -44t-63.5 -40 t-60 -28.5q20 135 28 279q6 114 5 223v57v166q-18 -16 -50 -37t-66 -39.5t-68 -30.5t-58 -12q-33 0 -61.5 14.5t-52 38t-43 51t-32.5 54.5q-29 -25 -64.5 -50.5t-75.5 -48t-81 -37t-78 -14.5q-74 0 -117.5 35t-68 89t-34 117.5t-13.5 123.5z" />
<glyph unicode="m" horiz-adv-x="1511" d="M0 -414q18 125 24.5 257t6.5 261v725l209 125v-1128q47 47 101 101.5t126 121.5v780l209 125v-700q43 39 98 87t117 101v387l209 125v-346q92 66 172 110t133 44q57 0 81.5 -34t24.5 -87q0 -96 -49 -150.5t-125 -99.5q8 16 9 39q0 31 -5.5 59.5t-18.5 52t-35.5 37 t-59.5 13.5q-20 0 -53 -15.5t-74 -44.5v-790q-51 -41 -115.5 -87t-124.5 -69q18 125 24.5 257t6.5 261v271q-61 -51 -117.5 -100.5t-97.5 -88.5v-444q-51 -41 -115.5 -87t-124.5 -69q14 96 20.5 195.5t8.5 198.5q-68 -70 -123 -126.5t-102 -111.5q-51 -41 -116 -87t-124 -69 z" />
<glyph unicode="n" horiz-adv-x="1087" d="M59 -594q31 207 31 413v414v596l209 125v-911q53 53 103.5 100t105.5 82t118.5 54.5t145.5 19.5q55 0 111.5 -25.5t101.5 -68.5t73.5 -97.5t28.5 -111.5q0 -49 -21.5 -113.5t-59 -132t-87 -134.5t-104.5 -118t-112.5 -82.5t-110.5 -31.5q-16 0 -36.5 14t-39.5 31 q-23 20 -45 45l117 133q35 -27 73.5 -45.5t81.5 -18.5t79 22.5t60.5 56.5t39 76t14.5 79q0 63 -24.5 129.5t-67.5 122t-102.5 90.5t-129.5 35q-41 0 -84 -17.5t-85 -43t-78.5 -56.5t-65.5 -57v-418q-51 -41 -115.5 -87t-124.5 -69z" />
<glyph unicode="o" horiz-adv-x="1087" d="M59 -594q31 207 31 413v414v596l209 125v-356q174 4 352 14.5t348 44.5q-10 -43 -23 -77.5t-37 -61t-57.5 -41t-82.5 -14.5q-133 0 -249 8t-251 14v-442q53 53 103.5 100t105.5 82t118.5 54.5t145.5 19.5q55 0 111.5 -25.5t101.5 -68.5t73.5 -97.5t28.5 -111.5 q0 -49 -21.5 -113.5t-59 -132t-87 -134.5t-104.5 -118t-112.5 -82.5t-110.5 -31.5q-16 0 -36.5 14t-39.5 31q-23 20 -45 45l117 133q35 -27 73.5 -45.5t81.5 -18.5t79 22.5t60.5 56.5t39 76t14.5 79q0 63 -24.5 129.5t-67.5 122t-102.5 90.5t-129.5 35q-41 0 -84 -17.5 t-85 -43t-78.5 -56.5t-65.5 -57v-418q-51 -41 -115.5 -87t-124.5 -69z" />
<glyph unicode="p" horiz-adv-x="1087" d="M59 -700q23 158 27 315.5t4 316.5v897l209 125v-911q53 53 103.5 100t105.5 82t118.5 54.5t145.5 19.5q55 0 111.5 -25.5t101.5 -68.5t73.5 -97.5t28.5 -111.5q0 -39 -14 -89t-38.5 -103.5t-59.5 -108.5t-74 -105q92 4 166 10.5t129 18.5q-10 -29 -36.5 -66.5 t-55.5 -70.5q-33 -39 -72 -78h-727q-55 -20 -121.5 -52t-124.5 -52zM299 -20v-390q98 0 196.5 -1t196.5 -1h162q39 37 60.5 89.5t21.5 99.5q0 63 -24.5 129.5t-67.5 122t-102.5 90.5t-129.5 35q-41 0 -84 -17.5t-85 -43t-78.5 -56.5t-65.5 -57z" />
<glyph unicode="q" horiz-adv-x="1781" d="M61 -594q31 207 31 415v417v591l207 125v-913q51 53 100.5 100t102.5 82t116.5 54.5t143.5 19.5q47 0 90 -18.5t80 -47t67.5 -66.5t53.5 -77q49 47 94 86t93 66.5t104.5 42t128.5 14.5q57 0 112 -25.5t99.5 -68.5t71 -97.5t26.5 -111.5q0 -49 -21.5 -113.5t-57.5 -132 t-84 -133.5t-102.5 -118t-110.5 -83.5t-110 -31.5q-16 0 -35.5 14t-37.5 31q-23 20 -45 45l114 131q35 -25 73 -43.5t81 -18.5t78 22.5t59.5 57.5t37.5 76t13 78q0 61 -23.5 127.5t-66.5 122t-101.5 91.5t-125.5 36q-25 0 -67 -13.5t-82 -35t-69.5 -49t-29.5 -56.5 q0 -49 -20.5 -113.5t-56.5 -133t-84 -135.5t-101 -119t-110.5 -83.5t-110.5 -31.5q-16 0 -36 14t-38 31q-23 20 -45 45l115 131q35 -25 72.5 -43.5t78.5 -18.5q43 0 78 22.5t59.5 57.5t38 76t13.5 78q0 61 -24 127.5t-65.5 122t-99 91.5t-127.5 36q-41 0 -83 -17.5 t-83 -44.5t-76.5 -56.5t-64.5 -56.5v-415q-51 -41 -114.5 -87t-123.5 -69z" />
<glyph unicode="r" horiz-adv-x="1781" d="M61 -594q31 207 31 415v417v591l207 125v-356q57 2 148.5 3t198 4t222 7t221 10.5t195.5 14.5t146 20q-10 -43 -23.5 -77.5t-37 -61t-57.5 -41t-83 -14.5q-45 0 -119 1t-162 3t-183 4t-184 5t-163 5t-119 4v-424q51 53 100.5 100.5t102.5 82.5t116.5 54t143.5 19 q47 0 90 -18t80 -47t67.5 -67t53.5 -76q49 47 94 85.5t93 66.5t104.5 42t128.5 14q57 0 112 -25.5t99.5 -68.5t71 -97t26.5 -112q0 -49 -21.5 -113.5t-57.5 -132t-84 -133t-102.5 -118t-110.5 -84t-110 -31.5q-16 0 -35.5 14.5t-37.5 30.5q-23 20 -45 45l114 131 q35 -25 73 -43t81 -18t78 22.5t59.5 57t37.5 75.5t13 78q0 61 -23.5 128t-66.5 122t-101.5 91t-125.5 36q-25 0 -67 -13.5t-82 -35t-69.5 -49t-29.5 -56.5q0 -49 -20.5 -113.5t-56.5 -133t-84 -135t-101 -119t-110.5 -84t-110.5 -31.5q-16 0 -36 14.5t-38 30.5 q-23 20 -45 45l115 131q35 -25 72.5 -43t78.5 -18q43 0 78 22.5t59.5 57t38 75.5t13.5 78q0 61 -24 128t-65.5 122t-99 91t-127.5 36q-41 0 -83 -17.5t-83 -44t-76.5 -56t-64.5 -56.5v-436q-51 -41 -114.5 -87t-123.5 -69z" />
<glyph unicode="s" horiz-adv-x="1783" d="M61 -700q23 158 27 315.5t4 316.5v897l209 125v-911q51 53 100.5 100t102.5 82t116.5 54.5t143.5 19.5q47 0 90 -18.5t80 -47t67.5 -66.5t53.5 -77q49 47 94 86t93 66.5t104.5 42t128.5 14.5q57 0 112 -25.5t99.5 -68.5t71 -97.5t26.5 -111.5q0 -82 -55.5 -189.5 t-139.5 -209.5q104 4 186.5 9t116.5 13q-10 -29 -36.5 -66.5t-55.5 -70.5q-33 -39 -71 -78h-1422q-55 -20 -121.5 -52t-124.5 -52zM301 -20v-390h514q51 31 80 81.5t29 105.5q0 61 -23.5 127.5t-65.5 122t-99.5 91.5t-127.5 36q-41 0 -83 -17.5t-83 -44t-76.5 -56.5 t-64.5 -56zM870 -412q168 0 334 1t334 5q47 35 72.5 82.5t25.5 100.5q0 61 -23.5 127.5t-66.5 122t-101.5 91.5t-125.5 36q-25 0 -67 -13.5t-82 -35t-69.5 -49t-29.5 -56.5q0 -84 -57.5 -195.5t-143.5 -216.5z" />
<glyph unicode="t" horiz-adv-x="1089" d="M61 -1030q23 158 27 315.5t4 317.5v1226l209 125v-489q53 53 103.5 100t105.5 82t118.5 54.5t145.5 19.5q55 0 111.5 -25.5t101.5 -68.5t74 -97.5t29 -111.5q0 -45 -18.5 -103.5t-51.5 -121t-76 -124t-92 -112.5q47 -16 90 -45t76 -68t52.5 -85t19.5 -93q0 -39 -14.5 -89 t-39 -103.5t-59.5 -108.5t-74 -104q92 4 166 10t129 18q-10 -29 -36.5 -66.5t-55.5 -70.5q-33 -39 -72 -78h-727q-55 -20 -121.5 -52t-124.5 -52zM301 -287q53 53 103.5 100.5t105.5 82t118.5 54t145.5 19.5q35 0 64.5 25.5t52 61.5t35 75t12.5 68q0 63 -24.5 129.5 t-67.5 122t-102.5 90t-129.5 34.5q-41 0 -84 -17t-85 -43t-78.5 -56.5t-65.5 -57.5v-688zM301 -350v-389q98 0 196.5 -1t196.5 -1h162q39 37 60.5 89t21.5 99q0 63 -24.5 130t-67.5 122t-102.5 90t-129.5 35q-41 0 -84 -17.5t-85 -43t-78.5 -56.5t-65.5 -57z" />
<glyph unicode="u" horiz-adv-x="1087" d="M59 -1135q23 154 27 310.5t4 312.5v1343l209 123v-489q53 53 103.5 100t105.5 82t118.5 54.5t145.5 19.5q55 0 111.5 -25.5t101.5 -68.5t73.5 -97.5t28.5 -111.5q0 -49 -21.5 -113.5t-59 -132.5t-87 -134.5t-104.5 -117.5t-112.5 -83t-110.5 -32q-16 0 -36.5 14.5 t-39.5 30.5q-23 20 -45 46l117 133q35 -27 73.5 -45.5t81.5 -18.5t79 22.5t60.5 56.5t39 76t14.5 79q0 63 -24.5 129.5t-67.5 122t-102.5 90t-129.5 34.5q-41 0 -84 -17t-85 -43t-78.5 -56.5t-65.5 -57.5v-913q53 53 103.5 100t105.5 82t118.5 54.5t145.5 19.5 q55 0 111.5 -25.5t101.5 -68.5t73.5 -97.5t28.5 -111.5q0 -49 -21.5 -113.5t-59 -132t-87 -134.5t-104.5 -118t-112.5 -82.5t-110.5 -31.5q-16 0 -36.5 14t-39.5 31q-23 20 -45 45l117 133q35 -27 73.5 -45.5t81.5 -18.5t79 22.5t60.5 56.5t39 76t14.5 79q0 63 -24.5 129.5 t-67.5 122t-102.5 90.5t-129.5 35q-41 0 -84 -17.5t-85 -43t-78.5 -56.5t-65.5 -57v-408q-51 -41 -115.5 -85t-124.5 -67z" />
<glyph unicode="v" horiz-adv-x="1122" d="M61 -655q23 129 26 262t3 264v958l209 125q-5 -75 -5 -174v-34q1 -120 16.5 -248.5t49 -253.5t95 -223.5t154.5 -160t229 -61.5q37 0 74.5 10.5t68.5 32t51.5 53t20.5 74.5q0 41 -19.5 80t-44.5 72l133 96q12 -6 27.5 -17.5t31 -24.5t26 -28.5t10.5 -29.5 q0 -53 -30 -108.5t-79 -108t-110.5 -97.5t-127 -79.5t-127 -54t-110.5 -19.5q-43 0 -92 23.5t-95.5 57t-85 73.5t-61.5 71v-375q-51 -43 -114.5 -88t-123.5 -67z" />
<glyph unicode="w" horiz-adv-x="841" d="M59 -655q23 158 27 315.5t4 316.5v852l207 125v-747l231 244q39 41 94.5 74.5t114.5 33.5q49 0 77 -31.5t28 -78.5q0 -86 -54.5 -144.5t-123.5 -99.5q8 23 8 53q0 45 -23.5 80t-73.5 35q-29 0 -67.5 -28t-78.5 -65.5t-76 -74.5t-56 -55v-367l209 213q41 41 97 73.5 t116 32.5q49 0 75.5 -30.5t26.5 -77.5q0 -86 -54 -152.5t-122 -111.5q4 10 6 19t2 20q0 25 -3 51t-13 47.5t-29.5 35t-52.5 13.5q-27 0 -62.5 -23.5t-71.5 -55.5t-70 -63.5t-54 -49.5v-224q-25 -20 -54.5 -42.5t-60 -44t-62.5 -40t-61 -28.5z" />
<glyph unicode="x" horiz-adv-x="841" d="M59 -655q23 158 27 315.5t4 316.5v852l207 125v-645l231 244q39 41 94.5 75t114.5 34q47 0 76 -30t29 -77q-29 -49 -83 -101.5t-102 -82.5q2 8 2 22q0 35 -24.5 58.5t-59.5 23.5q-29 0 -67.5 -27.5t-77.5 -64.5t-75 -75t-58 -56v-272l231 243q39 41 94.5 75t114.5 34 q47 0 76 -31t29 -78q-29 -47 -83 -99t-102 -83q2 8 2 22q0 35 -24.5 57.5t-59.5 22.5q-29 0 -67.5 -27.5t-77.5 -64.5t-75 -73.5t-58 -55.5v-272l231 241q39 41 94.5 75t114.5 34q47 0 76 -29.5t29 -76.5q-29 -49 -83 -101.5t-102 -81.5q2 6 2 23q0 35 -24.5 57.5 t-59.5 22.5q-29 0 -67.5 -28t-77.5 -64.5t-75 -74.5t-58 -57v-90q-25 -20 -54.5 -42.5t-60 -44t-62.5 -40t-61 -28.5z" />
<glyph unicode="y" horiz-adv-x="854" d="M59 -655q25 156 29 315.5t4 316.5l2 852l236 125v-563q14 39 47 67.5t74 48t86 29t84 9.5t80.5 -8.5t75.5 -28t55.5 -52t21.5 -79.5v-8q0 -76 -36 -148q-38 -76 -100.5 -134t-142 -93t-159.5 -35q-47 0 -86 18v-477q-57 -41 -131 -87t-140 -68zM330 256q0 -43 6 -81 t23.5 -65.5t48 -44t81.5 -16.5q98 0 153.5 62.5t55.5 152.5q0 39 -10 75t-29.5 64.5t-50 46t-69.5 17.5q-92 0 -150.5 -61.5t-58.5 -149.5z" />
<glyph unicode="z" horiz-adv-x="854" d="M59 -655q25 156 29 315.5t4 316.5l2 852l236 125v-563q14 39 47 67.5t74 48t86 29t84 9.5t80.5 -8.5t75.5 -28t55.5 -52t21.5 -79.5v-8q0 -76 -36 -148q-38 -76 -100.5 -134t-142 -93t-159.5 -35q-47 0 -86 18v-477q-57 -41 -131 -87t-140 -68zM330 256q0 -43 6 -81 t23.5 -65.5t48 -44t81.5 -16.5q59 0 107 25q-18 25 -50 60.5t-68 73.5t-71.5 71.5t-64.5 52.5q-12 -37 -12 -76zM442 444q27 -20 61 -49.5t68.5 -63.5t65.5 -69t51 -65q4 16 7 32.5t3 34.5q0 39 -10 75t-29.5 64.5t-50 46t-69.5 17.5q-51 0 -97 -23z" />
<glyph unicode="{" horiz-adv-x="854" d="M59 -655q25 156 30 315.5t5 316.5v852l236 125v-563q14 39 47 67.5t74 48t86 29t84 9.5t80.5 -8.5t75.5 -28t55.5 -52t21.5 -79.5q0 -72 -22.5 -133.5t-71.5 -112.5q86 -113 124 -245t36 -271q0 -4 -1 -4t-4 4q-16 53 -47.5 110.5t-71.5 113t-85 104.5t-84 88 q-47 -29 -100.5 -50.5t-110.5 -21.5q-47 0 -86 18v-477q-57 -41 -131 -87t-140 -68zM330 256q0 -43 6 -81t23.5 -65.5t48 -44t81.5 -16.5q59 0 107 25q-18 25 -50 60.5t-68 73.5t-71.5 71.5t-64.5 52.5q-12 -37 -12 -76zM442 444q27 -20 61 -49.5t68.5 -63.5t65.5 -69 t51 -65q4 16 7 32.5t3 34.5q0 39 -10 75t-29.5 64.5t-50 46t-69.5 17.5q-51 0 -97 -23z" />
<glyph unicode="|" horiz-adv-x="854" d="M59 -655q25 156 30 315.5t5 316.5v852l236 125v-387q14 39 47 68t74 47t86 27.5t84 9.5t80.5 -8.5t75.5 -27.5t55.5 -51t21.5 -79q0 -119 -52 -192.5t-147 -137.5q35 -4 71 -15t64.5 -30.5t46 -48.5t17.5 -72q2 -82 -36 -156.5t-100.5 -133t-141 -93t-160.5 -34.5 q-43 0 -86 16v-156q-57 -41 -131 -87t-140 -68zM330 -31q0 -45 8 -88t29.5 -76.5t55.5 -55t87 -21.5q96 0 142 63.5t46 153.5q0 39 -13 74.5t-36.5 63.5t-57.5 45t-73 17q-18 0 -46 -7t-55.5 -17t-51 -24.5t-35.5 -28.5v-99zM330 229q23 -18 48 -26t54 -8q117 0 189.5 62 t76.5 183q0 39 -13 75t-36.5 63.5t-57.5 45t-73 17.5q-98 0 -143 -59.5t-45 -149.5v-203z" />
<glyph unicode="}" horiz-adv-x="1288" d="M59 -655q25 156 30 315.5t5 316.5v852l234 125v-665q0 -35 7 -76t23.5 -76t45 -59.5t71.5 -24.5t76 17.5t55.5 45t34.5 64.5t12 76q0 18 -4 36.5t-6 37.5l166 41q2 -39 4 -93.5t14.5 -104.5t41 -85t87.5 -35q45 0 79 18.5t55.5 48.5t32 68.5t10.5 79.5q0 33 -7 64l162 39 q0 -68 -34.5 -141.5t-93 -133t-130.5 -98.5t-145 -39q-33 0 -61.5 14.5t-52 38t-43 51t-32.5 54.5q-25 -20 -60.5 -47t-76.5 -50.5t-82 -40t-71 -16.5q-20 0 -40 5t-38 14v-482q-29 -20 -62 -43.5t-68.5 -45t-70.5 -39t-68 -27.5z" />
<glyph unicode="~" horiz-adv-x="1810" d="M0 -289q0 55 47 131t111.5 144.5t131 117t107.5 48.5v677l209 125v-802h598v677l209 125v-802h14q66 0 134.5 -17.5t124 -53.5t90 -89t34.5 -127q0 -78 -38.5 -136.5t-99 -97.5t-133.5 -58t-140 -19q-55 0 -93 23.5t-60.5 76.5t-32 138t-9.5 208h-598v-43q0 -90 -44 -164 t-114.5 -127t-156.5 -82.5t-172 -29.5q-66 0 -92.5 49t-26.5 108zM133 -207q0 -41 15.5 -69.5t39 -47t52 -26.5t55.5 -8q39 0 70.5 31.5t31.5 103.5v223q-141 0 -202.5 -53t-61.5 -154zM1413 0v-102q0 -135 35 -208t94 -73q61 0 96 39t35 137t-72.5 152.5t-187.5 54.5z" />
<glyph unicode="&#xa1;" horiz-adv-x="1380" d="M0 221q0 94 46 170t118 131.5t162 89t178 45.5v172l211 125v-383q131 4 261 17.5t259 42.5q-10 -39 -23.5 -77t-35 -68.5t-53 -49t-81.5 -18.5q-84 0 -164.5 9t-162.5 15v-290q168 6 333.5 18t331.5 45q-25 -92 -78 -153.5t-157 -61.5h-490q-90 0 -178 -10t-178 -10 q-63 0 -117.5 13t-94.5 41.5t-63.5 74.5t-23.5 112zM180 371q0 -59 30 -105.5t76 -79t101 -52t105 -25.5q2 33 6 71q2 35 4 79t2 97v136q-33 31 -66 50t-80 19q-33 0 -64.5 -19.5t-57 -48t-41 -62.5t-15.5 -60z" />
<glyph unicode="&#xa2;" horiz-adv-x="2015" d="M0 221q0 94 46 170t118 131.5t162 89t178 45.5v172l209 125v-815l467 8v682l209 125v-802q168 6 333.5 18t331.5 45q-25 -92 -78 -153.5t-157 -61.5h-1190q-84 0 -166 -10t-164 -10q-63 0 -117.5 13t-94.5 41.5t-63.5 75t-23.5 111.5zM180 371q0 -59 30 -105.5t76 -79 t101 -52t105 -25.5q2 33 6 71q2 35 4 79t2 97v136q-33 31 -66 50t-80 19q-33 0 -64.5 -19.5t-57 -48t-41 -62.5t-15.5 -60z" />
<glyph unicode="&#xa3;" horiz-adv-x="2015" d="M0 221q0 94 46 170t118 131.5t162 89t178 45.5v172l209 125v-815l467 8v682l209 125v-383q131 4 261 17.5t259 42.5q-10 -39 -23.5 -77t-35 -68.5t-53.5 -49t-81 -18.5q-84 0 -165 9t-162 15v-290q168 6 333.5 18t331.5 45q-25 -92 -78 -153.5t-157 -61.5h-1190 q-84 0 -166 -10t-164 -10q-63 0 -117.5 13t-94.5 41.5t-63.5 75t-23.5 111.5zM180 371q0 -59 30 -105.5t76 -79t101 -52t105 -25.5q2 33 6 71q2 35 4 79t2 97v136q-33 31 -66 50t-80 19q-33 0 -64.5 -19.5t-57 -48t-41 -62.5t-15.5 -60z" />
<glyph unicode="&#xa4;" horiz-adv-x="2015" d="M0 221q0 94 46 170t118 131.5t162 89t178 45.5v172l209 125v-817l227 4v688l209 125v-811l215 4v682l209 125v-802q168 6 334 18t331 45q-25 -92 -78 -153.5t-157 -61.5h-1374q-84 0 -166 -10t-164 -10q-63 0 -117.5 13t-94.5 41.5t-63.5 75t-23.5 111.5zM180 371 q0 -59 30 -105.5t76 -79t101 -52t105 -25.5q2 33 6 71q2 35 4 79t2 97v136q-33 31 -66 50t-80 19q-33 0 -64.5 -19.5t-57 -48t-41 -62.5t-15.5 -60z" />
<glyph unicode="&#xa5;" horiz-adv-x="2015" d="M0 221q0 94 46 170t118 131.5t162 89t178 45.5v172l209 125v-817l227 4v688l209 125v-811l215 4v682l209 125v-383q131 4 261 17.5t259 42.5q-10 -39 -23.5 -77t-35 -68.5t-53 -49t-80.5 -18.5q-84 0 -165 9t-163 15v-290q168 6 334 18t331 45q-25 -92 -78 -153.5 t-157 -61.5h-1374q-84 0 -166 -10t-164 -10q-63 0 -117.5 13t-94.5 41.5t-63.5 75t-23.5 111.5zM180 371q0 -59 30 -105.5t76 -79t101 -52t105 -25.5q2 33 6 71q2 35 4 79t2 97v136q-33 31 -66 50t-80 19q-33 0 -64.5 -19.5t-57 -48t-41 -62.5t-15.5 -60z" />
<glyph unicode="&#xa6;" horiz-adv-x="1382" d="M0 221q0 94 46 170t118 131.5t162 89t178 45.5v172l211 125v-1335q168 8 335 19.5t332 46.5q-12 -47 -28.5 -83t-40 -60.5t-59 -38t-89.5 -13.5h-510q-90 0 -178 -10t-178 -10q-63 0 -117.5 13t-94.5 42t-63.5 75t-23.5 111q0 98 37 163t119 128q-72 23 -114 75t-42 144z M180 -139q0 -59 30 -105.5t76 -79t101 -52t105 -25.5q2 33 6 71q2 35 4 79t2 97v136q-33 31 -66 50t-80 19q-33 0 -64.5 -19.5t-57 -48t-41 -62.5t-15.5 -60zM180 371q0 -47 18.5 -85t49.5 -69t70.5 -52.5t80.5 -35.5q23 6 49.5 11t55.5 10v342q-33 31 -66 50t-80 19 q-33 0 -64.5 -19.5t-57 -48t-41 -62.5t-15.5 -60z" />
<glyph unicode="&#xa7;" horiz-adv-x="1382" d="M0 221q0 94 46 170t118 131.5t162 89t178 45.5v172l211 125v-800q131 4 261 17t259 42q-10 -39 -22.5 -77t-34 -68.5t-54 -49t-82.5 -18.5q-84 0 -164.5 9t-162.5 16v-406q168 8 335 19.5t332 46.5q-12 -47 -28.5 -83t-40 -60.5t-59 -38t-89.5 -13.5h-510q-90 0 -178 -10 t-178 -10q-63 0 -117.5 13t-94.5 42t-63.5 75t-23.5 111q0 98 37 163t119 128q-72 23 -114 75t-42 144zM180 -139q0 -59 30 -105.5t76 -79t101 -52t105 -25.5q2 33 6 71q2 35 4 79t2 97v136q-33 31 -66 50t-80 19q-33 0 -64.5 -19.5t-57 -48t-41 -62.5t-15.5 -60zM180 371 q0 -47 18.5 -85t49.5 -69t70.5 -52.5t80.5 -35.5q23 6 49.5 11t55.5 10v342q-33 31 -66 50t-80 19q-33 0 -64.5 -19.5t-57 -48t-41 -62.5t-15.5 -60z" />
<glyph unicode="&#xa8;" horiz-adv-x="1636" d="M0 221q0 94 46 170t118 131.5t162 89t178 45.5v172l211 125v-802q160 0 325.5 2t325.5 20v655l209 125v-1452q-51 -41 -115.5 -87t-124.5 -68q18 125 24.5 257t6.5 261v135h-711q-90 0 -178 -10t-178 -10q-63 0 -117.5 13t-94.5 41.5t-63.5 75t-23.5 111.5zM180 371 q0 -59 30 -105.5t76 -79t101 -52t105 -25.5q2 33 6 71q2 35 4 79t2 97v136q-33 31 -66 50t-80 19q-33 0 -64.5 -19.5t-57 -48t-41 -62.5t-15.5 -60z" />
<glyph unicode="&#xa9;" horiz-adv-x="1314" d="M0 -276q0 139 66.5 225t166 135t216.5 69.5t215 26.5q-8 37 -12.5 73t-7.5 82t-4 104.5t-1 138.5v251l209 125v-360q57 0 138 -6t153.5 -28.5t124 -68t51.5 -122.5q0 -80 -37 -147.5t-97.5 -117t-138 -77t-159.5 -27.5h-394q-53 0 -103 4t-103 4q-20 0 -47 -2t-51.5 -10 t-41 -24.5t-16.5 -45.5q0 -45 25.5 -92t54.5 -78l-180 -135q-27 47 -27 103zM848 410q0 -53 3 -110.5t17.5 -106t41 -79t75.5 -30.5q156 0 156 182q0 102 -75 149.5t-218 59.5v-65z" />
<glyph unicode="&#xaa;" horiz-adv-x="1525" d="M-178 -358q0 49 12 84.5t36 65.5t55.5 53.5t70.5 45.5q-8 -16 -8 -38q0 -31 5 -60t18.5 -52.5t36 -36.5t58.5 -13q33 0 98.5 42t143.5 101.5t156 127t137 118.5v749l209 125v-665q92 98 162.5 175t126 141.5t98.5 118.5t80 105l209 125v-1212q-51 -41 -115.5 -87 t-124.5 -69q18 125 24.5 257t6.5 261v609q-39 -43 -83 -92.5t-99.5 -108.5t-125 -131t-159.5 -164v-475q-51 -41 -115.5 -87t-124.5 -69q16 104 22.5 212t8.5 216q-72 -66 -171 -150.5t-200.5 -161.5t-192.5 -129t-149 -52q-57 0 -81.5 33.5t-24.5 87.5z" />
<glyph unicode="&#xab;" horiz-adv-x="1525" d="M-178 -358q0 49 12 84.5t36 65.5t55.5 53.5t70.5 45.5q-8 -16 -8 -38q0 -31 5 -60t18.5 -52.5t36 -36.5t58.5 -13q23 0 60 19.5t83 51t98 72.5t106 84q2 47 3 93t1 93v725l209 125v-852q88 88 138 139.5t89 92.5v495l209 125v-389q68 78 119 141.5t96 122.5l209 125 v-1212q-51 -41 -115.5 -87t-124.5 -69q18 125 24.5 257t6.5 261v609q-45 -51 -96.5 -108.5t-118.5 -129.5v-733q-51 -41 -115.5 -87t-124.5 -69q18 125 24.5 257t6.5 261v156q-59 -59 -115.5 -114.5t-111.5 -110.5v-293q-51 -41 -116 -87t-124 -69q18 125 25 260 q-72 -59 -147 -117.5t-144.5 -104.5t-130 -74.5t-101.5 -28.5q-57 0 -81.5 33.5t-24.5 87.5z" />
<glyph unicode="&#xac;" horiz-adv-x="1525" d="M0 -414q18 125 24.5 257t6.5 261v725l209 125v-1128l467 455v548l208 125v-491q68 55 137.5 109.5t135 96.5t121 67.5t96.5 25.5q57 0 81.5 -34t24.5 -87q0 -96 -49 -150.5t-125 -99.5q8 16 9 39q0 31 -5.5 59.5t-18.5 52t-35.5 37t-59.5 13.5q-20 0 -54 -16.5t-75 -44 t-88 -63.5t-95 -75v-651q-51 -41 -115.5 -87t-123.5 -69q18 125 24.5 257t6.5 261v111q-129 -115 -246 -231.5t-221 -241.5q-51 -41 -116 -87t-124 -69z" />
<glyph unicode="&#xad;" horiz-adv-x="1525" d="M0 -414q18 125 24.5 257t6.5 261v725l209 125v-1128q47 47 101 101.5t126 121.5v780l209 125v-700q43 39 98 87t117 101v387l209 125v-346q92 66 172 110t133 44q57 0 81.5 -34t24.5 -87q0 -96 -49 -150.5t-125 -99.5q8 16 9 39q0 31 -5.5 59.5t-18.5 52t-35.5 37 t-59.5 13.5q-20 0 -53 -15.5t-74 -44.5v-790q-51 -41 -115.5 -87t-124.5 -69q18 125 24.5 257t6.5 261v271q-61 -51 -117.5 -100.5t-97.5 -88.5v-444q-51 -41 -115.5 -87t-124.5 -69q14 96 20.5 195.5t8.5 198.5q-68 -70 -123 -126.5t-102 -111.5q-51 -41 -116 -87t-124 -69 z" />
<glyph unicode="&#xae;" horiz-adv-x="976" d="M0 -414q18 125 24.5 257t6.5 261v725l209 125v-665q92 98 162.5 175t126 141.5t98.5 118.5t80 105l208 125v-1212q-51 -41 -115.5 -87t-123.5 -69q18 125 24.5 257t6.5 261v234q-92 -100 -163 -179t-126.5 -143.5t-98.5 -119t-79 -105.5v-49q-51 -41 -116 -87t-124 -69z M240 -113q39 43 83 95.5t99 115t124.5 138t160.5 167.5v330q-39 -43 -83 -95t-99.5 -115.5t-125 -138.5t-159.5 -167v-330z" />
<glyph unicode="&#xaf;" horiz-adv-x="1136" d="M0 -414q18 125 24.5 257t6.5 261v725l209 125v-417q0 -82 27.5 -160t78.5 -137.5t123 -96.5t160 -37q43 0 86 18.5t76.5 51.5t54 74t20.5 88v491l209 125v-1212q-51 -41 -115.5 -87t-123.5 -69q18 125 24 257t6 261v39q-90 -74 -199.5 -116.5t-226.5 -42.5q-51 0 -105 11 t-99 38q0 -8 2 -17q0 -6 1 -14t1 -12v-248q-51 -41 -116 -87t-124 -69z" />
<glyph unicode="&#xb0;" horiz-adv-x="1841" d="M0 -414q18 125 24.5 257t6.5 261v725l209 125v-495q0 -68 34.5 -127.5t88 -102.5t120 -67.5t131.5 -24.5q31 0 70 17.5t73 46t57.5 62.5t23.5 69v606l147 29v-475q0 -68 34 -131.5t88 -113.5t120.5 -80t132.5 -30q88 0 149.5 54.5t61.5 146.5v491l209 125v-1212 q-51 -41 -116 -87t-124 -69q18 125 24.5 257t6.5 261v72q-43 -35 -94.5 -69.5t-106.5 -62.5t-113.5 -44t-115.5 -16q-53 0 -100.5 21.5t-85 55t-65.5 77.5t-46 89q-45 -59 -92 -104t-100.5 -76t-117 -47t-139.5 -16q-87 0 -159 55q0 -10 2 -19q0 -8 1 -17t1 -13v-248 q-51 -41 -116 -87t-124 -69z" />
<glyph unicode="&#xb1;" horiz-adv-x="1593" d="M0 -414q18 125 24.5 257t6.5 261v725l209 125v-553q117 2 242.5 2.5t248.5 6.5q27 145 48.5 277t64.5 259q0 2 2 4q6 6 8 6t8 -6q2 -2 2 -4q-16 -215 -26.5 -432t-10.5 -432q0 -68 35 -130.5t89.5 -111.5t121 -77.5t131.5 -28.5q37 0 75 10t67.5 31.5t49 52.5t19.5 74 t-18.5 80.5t-42.5 72.5l131 95q12 -6 27.5 -17.5t28.5 -24t23.5 -27.5t10.5 -30q0 -53 -29.5 -108.5t-80 -106.5t-113 -97t-128 -81t-128 -54.5t-111.5 -19.5q-57 0 -115.5 30t-104.5 77t-74.5 103t-28.5 112q0 82 17 173t28 173h-467v-510q-51 -41 -116 -87t-124 -69z" />
<glyph unicode="&#xb2;" horiz-adv-x="1593" d="M0 -414q18 125 24.5 257t6.5 261v725l209 125v-383q61 0 129.5 2t138.5 5.5t137.5 11.5t128.5 20q18 111 35.5 201t34.5 135q0 2 2 4q6 6 8 6t8 -6q2 -2 2 -4q-16 -215 -26.5 -432t-10.5 -432q0 -68 35 -130.5t89.5 -111.5t121 -77.5t131.5 -28.5q37 0 75 10t67.5 31.5 t49 52.5t19.5 74t-18.5 80.5t-42.5 72.5l131 95q12 -6 27.5 -17.5t28.5 -24t23.5 -27.5t10.5 -30q0 -53 -29.5 -108.5t-80 -106.5t-113 -97t-128 -81t-128 -54.5t-111.5 -19.5q-57 0 -115.5 30t-104.5 77t-74.5 103t-28.5 112q4 23 10 58.5t12 80.5l-444 16v-319 q-51 -41 -116 -87t-124 -69zM240 199q111 2 237.5 7t235.5 21l28 195q-16 -6 -34 -6q-109 0 -234 6t-233 10v-233z" />
<glyph unicode="&#xb3;" horiz-adv-x="1855" d="M0 -414q18 125 24.5 257t6.5 261v725l209 125v-553h101t126 2v426l209 125v-548q88 4 170 7t147 9q27 135 48.5 266t66.5 258q0 2 2 4q6 6 8 6l6 -6l4 -4q-16 -215 -26 -432t-10 -432q0 -68 34.5 -130.5t88 -111.5t120 -77.5t131.5 -28.5q37 0 75 10t68.5 31.5t50 52.5 t19.5 74t-18.5 80.5t-44.5 72.5l131 95q12 -6 27.5 -17.5t29 -24t23.5 -27.5t10 -30q0 -53 -29.5 -108.5t-80 -106.5t-113 -97t-128 -81t-128 -54.5t-111.5 -19.5q-57 0 -115.5 30t-104.5 77t-74.5 103t-28.5 112q0 82 17 173t28 173h-293v-510q-51 -41 -115.5 -87 t-124.5 -69q18 125 24.5 257t6.5 261v148h-227v-510q-51 -41 -116 -87t-124 -69z" />
<glyph unicode="&#xb4;" horiz-adv-x="1755" d="M0 -414q18 125 24.5 257t6.5 261v725l209 125v-553q115 2 233.5 3.5t237.5 7.5q35 125 74.5 248.5t82.5 248.5q0 2 2 4q6 6 9 7l6 -7l4 -4q-16 -98 -39 -208.5t-42.5 -222t-33.5 -222.5t-14 -211q0 -66 29.5 -125t81 -104t122 -71t150.5 -26h213q70 0 139.5 -6 t122.5 -31.5t87 -78t34 -142.5q0 -37 -25.5 -71.5t-61.5 -67.5t-76 -58.5t-67 -43.5q27 55 27 121q0 113 -54.5 179t-170.5 66h-353q-72 0 -135 28t-109 71t-73 97t-27 107q0 33 2 69t7.5 79t15.5 95t27 120h-426v-510q-51 -41 -116 -87t-124 -69z" />
<glyph unicode="&#xb5;" horiz-adv-x="2074" d="M0 -414q18 125 24.5 257t6.5 261v725l209 125v-553h101t126 2v426l209 125v-548q43 2 92 3t96 3t91 4t77 6q39 133 77 252t79 235q0 2 2 4q6 6 8 7l6 -7l4 -4q-16 -98 -38.5 -208.5t-42 -222t-34 -222.5t-14.5 -211q0 -66 30 -125t81 -104t121.5 -71t150.5 -26h213 q70 0 139.5 -6t123 -31.5t87 -78t33.5 -142.5q0 -37 -25.5 -71.5t-61.5 -67.5t-76 -58.5t-66 -43.5q27 55 26 121q0 113 -54 179t-171 66h-352q-72 0 -135.5 28t-109.5 71t-72.5 97t-26.5 107q0 86 17.5 183.5t35.5 179.5h-311v-510q-51 -41 -115.5 -87t-124.5 -69 q18 125 24.5 257t6.5 261v148h-227v-510q-51 -41 -116 -87t-124 -69z" />
<glyph unicode="&#xb6;" horiz-adv-x="1136" d="M-627 -377q0 25 12.5 55.5t36 61.5t55 60.5t70.5 52.5q-12 -31 -11 -66t15.5 -65.5t42 -50t64.5 -19.5q166 0 284.5 100.5t194.5 265t112 376.5t36 435l209 125q0 -121 -27 -269t-72 -284q117 2 239 2t245 7v419l208 125v-1212q-51 -41 -115.5 -87t-123.5 -69 q18 125 24.5 257t6.5 261v148h-543q-66 -150 -154 -286t-195.5 -239.5t-230.5 -165t-256 -61.5q-57 0 -92 35t-35 88z" />
<glyph unicode="&#xb7;" horiz-adv-x="1302" d="M-627 -377q0 25 12.5 55.5t36 61.5t55 60.5t70.5 52.5q-12 -31 -11 -66t15.5 -65.5t42 -50t64.5 -19.5q166 0 284.5 100.5t194.5 265t112 376.5t36 435l209 125q0 -121 -27 -269t-72 -284h99.5t126.5 2v426l208 125v-548q57 2 110.5 3t104.5 5v415l209 125v-1212 q-51 -41 -115.5 -87t-123.5 -69q18 125 24 257t6 261v148h-215v-510q-51 -41 -115.5 -87t-123.5 -69q18 125 24.5 257t6.5 261v148h-285q-66 -150 -154 -286t-195.5 -239.5t-230.5 -165t-256 -61.5q-57 0 -92 35t-35 88z" />
<glyph unicode="&#xb8;" horiz-adv-x="1667" d="M0 115q0 94 55.5 194.5t142.5 183t192.5 137t205.5 54.5h129l2 248l168 47v-295h348q94 0 167 -35t124 -91t77.5 -128t26.5 -145q0 -78 -49 -164t-126 -158t-168 -119t-175 -47q-45 0 -78 21l205 155q35 -23 74 -22q63 0 110.5 45t47.5 135q0 76 -21.5 152.5t-71 139 t-127 101.5t-188.5 39h-608q-80 0 -139.5 -24.5t-98.5 -67.5t-58.5 -99.5t-19.5 -119.5q0 -55 21.5 -109.5t59.5 -96.5t88.5 -67.5t107.5 -25.5q29 0 57 6l-182 -135q-10 -4 -22.5 -6t-24.5 -2q-51 0 -96 25.5t-80 68.5t-55.5 96t-20.5 109z" />
<glyph unicode="&#xb9;" horiz-adv-x="1667" d="M0 115q0 94 55.5 194.5t142.5 183t192.5 137t205.5 54.5h129l2 248l168 47v-295h348q94 0 167 -35t124 -91t77.5 -128t26.5 -145q0 -61 -27.5 -122t-72.5 -117t-105.5 -104t-126 -83t-132 -55.5t-125.5 -20.5q-53 0 -103.5 23.5t-91.5 61.5t-72.5 84t-50.5 91 q-43 -57 -87 -105.5t-94 -82t-110.5 -53t-136.5 -19.5q-57 0 -111.5 28.5t-97.5 74.5t-68.5 106t-25.5 123zM147 252q0 -70 35 -128t89.5 -101t121 -67t129.5 -24q29 0 64 17.5t65.5 45.5t52 62.5t21.5 67.5v438h-262q-80 0 -139.5 -24.5t-98.5 -67.5t-58.5 -99.5 t-19.5 -119.5zM895 248q0 -63 36 -120.5t90 -100.5t119.5 -69t127.5 -26q88 0 149.5 53.5t61.5 145.5q0 76 -21.5 152.5t-71 139t-127 101.5t-188.5 39h-176v-315z" />
<glyph unicode="&#xba;" horiz-adv-x="1667" d="M0 115q0 94 55.5 194.5t142.5 183t192.5 137t205.5 54.5h129l2 248l168 47v-295h348q94 0 167 -35t124 -91t77.5 -128t26.5 -145q0 -61 -27.5 -122t-72.5 -117t-105.5 -104t-126 -83t-132 -55.5t-125.5 -20.5q-66 0 -131 39q8 -119 15 -221.5t17 -161.5 q-25 -20 -56.5 -46t-65 -50.5t-68.5 -46t-64 -31.5q4 37 8.5 83t7.5 128t6 214t5 345q-43 -55 -85 -101.5t-91 -80t-108.5 -52t-135.5 -18.5q-57 0 -111.5 28.5t-97.5 74.5t-68.5 105.5t-25.5 123.5zM147 252q0 -70 35 -128t89.5 -101t121 -67t129.5 -24q29 0 64 17.5 t65.5 45.5t52 62.5t21.5 67.5v438h-262q-80 0 -139.5 -24.5t-98.5 -67.5t-58.5 -99.5t-19.5 -119.5zM895 248q0 -63 36 -120.5t90 -100.5t119.5 -69t127.5 -26q88 0 149.5 53.5t61.5 145.5q0 76 -21.5 152.5t-71 139t-127 101.5t-188.5 39h-176v-315z" />
<glyph unicode="&#xbb;" horiz-adv-x="1464" d="M-2 -23l160 148q70 -27 145 -27q45 0 84 39t70.5 101.5t55.5 142.5t40 161t24.5 156.5t8.5 130.5l209 125q0 -66 13 -159t39.5 -192t67.5 -196.5t96.5 -175t126 -126t158.5 -48.5q45 0 86 5.5t72 29.5l10 2q-68 -86 -172 -116.5t-215 -30.5q-55 0 -104 33.5t-94 87 t-82 121t-66 135t-49 128t-29 103.5q-29 -92 -69.5 -198.5t-103 -197.5t-149.5 -151.5t-206 -60.5q-35 0 -66.5 8t-60.5 22z" />
<glyph unicode="&#xbc;" horiz-adv-x="1464" d="M-2 -23l160 148q70 -27 145 -27q45 0 84 39t70.5 101.5t55.5 142.5t40 161t24.5 156.5t8.5 130.5l209 125q0 -66 13 -159t39.5 -192t67.5 -196.5t96.5 -175t126 -126t158.5 -48.5q45 0 86 5.5t72 29.5l10 2q-68 -86 -172 -116.5t-215 -30.5q-41 0 -84 26 q-43 -41 -100 -78.5t-121.5 -67.5t-130.5 -47.5t-125 -17.5q-49 0 -96 15.5t-90 41t-80 60.5t-64 74q-31 -6 -61 -6q-35 0 -66.5 8t-60.5 22zM381 74q-2 -8 23.5 -39t70.5 -63.5t104.5 -58.5t122.5 -26q31 0 69 7.5t74 21.5t65.5 35.5t43.5 50.5q-59 53 -109 128t-89 151.5 t-65.5 149.5t-37.5 124q-35 -119 -104.5 -240.5t-167.5 -240.5z" />
<glyph unicode="&#xbd;" horiz-adv-x="1464" d="M-2 -23l160 148q70 -27 145 -27q45 0 84 39t70.5 101.5t55.5 142.5t40 161t24.5 156.5t8.5 130.5l209 125q0 -66 13 -159t39.5 -192t67.5 -196.5t96.5 -175t126 -126t158.5 -48.5q45 0 86 5.5t72 29.5l10 2q-68 -86 -172 -116.5t-215 -30.5q-78 0 -147.5 65.5 t-124.5 159.5q2 -92 7 -198.5t11 -208t14.5 -187.5t16.5 -139q-25 -20 -56.5 -46t-65.5 -50.5t-68.5 -46t-63.5 -31.5q4 41 9 92t9.5 150.5t7.5 266.5t3 439v266q-29 -90 -72 -184t-103.5 -171t-141.5 -127t-187 -50q-35 0 -66.5 8t-60.5 22z" />
<glyph unicode="&#xbe;" horiz-adv-x="1294" d="M-76 -377q0 25 12.5 55.5t36 61.5t55 60.5t70.5 52.5q-12 -31 -11 -66t15.5 -65.5t42 -50t64.5 -19.5q49 0 119.5 48t151.5 128t167 183.5t169 211t157 213t129 189.5t88 139t33 65l209 125q-4 -10 -49.5 -78.5t-120 -173t-173 -233.5t-208 -263t-225 -261t-225 -225.5 t-208 -159t-172.5 -60.5q-57 0 -92 35t-35 88z" />
<glyph unicode="&#xbf;" horiz-adv-x="1294" d="M-76 -377q0 25 12.5 55.5t36 61.5t55 60.5t70.5 52.5q-12 -29 -12 -60q0 -53 32 -97t91 -44q43 0 101.5 37t126 100.5t141 146t147.5 174t144.5 186.5t131.5 181q-96 -90 -204.5 -175t-220 -152.5t-223 -108.5t-212.5 -41q-53 0 -97 31.5t-44 91.5q0 39 19.5 72.5 t50 62.5t68.5 50.5t73 35.5q-12 -18 -17.5 -39.5t-5.5 -44.5q0 -49 32 -92t93 -43q90 0 183.5 35t182.5 91t172 130t153.5 151.5t126 155.5t92.5 141l209 125q-4 -10 -49.5 -78.5t-120 -173t-173 -233.5t-208 -263t-225 -261t-225 -225.5t-208 -159t-172.5 -60.5 q-57 0 -92 35t-35 88z" />
<glyph unicode="&#xc0;" horiz-adv-x="1294" d="M-76 -377q0 25 12.5 55.5t36 61.5t55 60.5t70.5 52.5q-12 -31 -11 -66t15.5 -65.5t42 -50t64.5 -19.5t84 26.5t101.5 72.5t114.5 108.5t122 134.5q-39 33 -98.5 93t-126 136t-134 159t-125 159.5t-97.5 140t-50 100.5l166 117q18 -49 55 -112.5t85 -136t104.5 -147.5 t115 -144.5t113.5 -130t102 -101.5q94 119 181.5 238.5t154 220t106.5 167t40 76.5l209 125q-4 -10 -49.5 -78.5t-120 -173t-173 -233.5t-208 -263t-225 -261t-225 -225.5t-208 -159t-172.5 -60.5q-57 0 -92 35t-35 88z" />
<glyph unicode="&#xc1;" horiz-adv-x="1294" d="M-76 -377q0 25 12.5 55.5t36 61.5t55 60.5t70.5 52.5q-12 -31 -11 -66t15.5 -65.5t42 -50t64.5 -19.5t84 26.5t101.5 72.5t114.5 108.5t122 134.5q-47 37 -120 113.5t-151 171.5l-157 -156q-16 -16 -41 -38t-52.5 -40t-56 -31.5t-53.5 -13.5q-20 0 -37.5 12.5t-17.5 28.5 q25 18 45 32.5t40.5 30l41 31t43.5 35.5q10 -8 24 -8t37 13t49.5 34.5t55 48.5t53.5 51q-59 70 -114.5 140.5t-101.5 134t-78 116t-40 82.5l166 117q18 -49 55 -112.5t85 -136t104.5 -147.5t115 -144.5t113.5 -130t102 -101.5q94 119 181.5 238.5t154 220t106.5 167t40 76.5 l209 125q-4 -10 -49.5 -78.5t-120 -173t-173 -233.5t-208 -263t-225 -261t-225 -225.5t-208 -159t-172.5 -60.5q-57 0 -92 35t-35 88z" />
<glyph unicode="&#xc2;" horiz-adv-x="1294" d="M-76 -377q0 25 12.5 55.5t36 61.5t55 60.5t70.5 52.5q-12 -31 -11 -66t15.5 -65.5t42 -50t64.5 -19.5t84 26.5t101.5 72.5t114.5 108.5t122 134.5q-47 39 -120 114.5t-153 167.5l-155 -153q-16 -16 -41 -38t-52.5 -40t-56 -31.5t-53.5 -13.5q-20 0 -37.5 12.5t-17.5 28.5 q25 18 45 32.5t40.5 30l41 31t43.5 35.5q10 -8 24 -8t37 13t49.5 34.5t54 47.5t52.5 50q-59 70 -114.5 140.5t-100.5 134t-77 116t-40 84.5l166 117q14 -41 43 -93t67.5 -111.5t84 -123t94.5 -125.5q59 68 113.5 130.5t94 111.5t63.5 80t24 37l190 123q0 -6 -41 -56.5 t-106.5 -124t-147.5 -162.5t-162 -175q68 -86 135.5 -160t122.5 -123q94 119 181.5 238.5t154 220t106.5 167t40 76.5l209 125q-4 -10 -49.5 -78.5t-120 -173t-173 -233.5t-208 -263t-225 -261t-225 -225.5t-208 -159t-172.5 -60.5q-57 0 -92 35t-35 88z" />
<glyph unicode="&#xc3;" horiz-adv-x="1294" d="M-76 -377q0 25 12.5 55.5t36 61.5t55 60.5t70.5 52.5q-12 -31 -11 -66t15.5 -65.5t42 -50t64.5 -19.5t84 26.5t101.5 72.5t114.5 108.5t122 134.5q-39 33 -98.5 93t-126 136t-134 159t-125 159.5t-97.5 140t-50 100.5l166 117q18 -49 55 -112.5t85 -136t104.5 -147.5 t115 -144.5t113.5 -130t102 -101.5q31 41 63 80t60 80q-61 72 -119.5 145.5t-107.5 140t-83 122t-42 87.5l166 117q14 -41 44 -94t68.5 -114.5t86 -126t96.5 -128.5q53 76 99 144.5t80 122t52.5 87t18.5 39.5l209 125q-4 -10 -49.5 -78.5t-120 -173t-173 -233.5t-208 -263 t-225 -261t-225 -225.5t-208 -159t-172.5 -60.5q-57 0 -92 35t-35 88z" />
<glyph unicode="&#xc4;" horiz-adv-x="1294" d="M-76 -377q0 25 12.5 55.5t36 61.5t55 60.5t70.5 52.5q-12 -31 -11 -66t15.5 -65.5t42 -50t64.5 -19.5t84 26.5t101.5 72.5t114.5 108.5t122 134.5q-47 37 -120 113.5t-151 171.5l-157 -156q-16 -16 -41 -38t-52.5 -40t-56 -31.5t-53.5 -13.5q-20 0 -37.5 12.5t-17.5 28.5 q25 18 45 32.5t40.5 30l41 31t43.5 35.5q10 -8 24 -8t37 13t49.5 34.5t55 48.5t53.5 51q-59 70 -114.5 140.5t-101.5 134t-78 116t-40 82.5l166 117q18 -49 55 -112.5t85 -136t104.5 -147.5t115 -144.5t113.5 -130t102 -101.5q31 41 63 80t60 80q-61 72 -119.5 145.5 t-107.5 140t-83 122t-42 87.5l166 117q14 -41 44 -94t68.5 -114.5t86 -126t96.5 -128.5q53 76 99 144.5t80 122t52.5 87t18.5 39.5l209 125q-4 -10 -49.5 -78.5t-120 -173t-173 -233.5t-208 -263t-225 -261t-225 -225.5t-208 -159t-172.5 -60.5q-57 0 -92 35t-35 88z" />
<glyph unicode="&#xc5;" horiz-adv-x="1294" d="M0 829l209 125q25 -68 91.5 -193.5t158.5 -274t200.5 -303t216 -280.5t205 -206t166.5 -80q27 0 59.5 6t62.5 21.5t49.5 40t19.5 59.5q0 23 -7.5 42t-17.5 38l131 123q14 -10 23.5 -23.5t9.5 -29.5q0 -53 -37 -120t-100.5 -126.5t-145.5 -99.5t-172 -40q-76 0 -162 56.5 t-180 153t-193.5 226.5t-198.5 276.5t-197.5 303t-190.5 305.5z" />
<glyph unicode="&#xc6;" horiz-adv-x="1294" d="M0 829l209 125q20 -55 68.5 -149t115 -208t148.5 -239t168 -243q94 115 181 233.5t154.5 217t107.5 164t40 75.5l190 123q-4 -12 -58 -94t-143 -203t-203 -268.5t-239 -290.5q72 -94 142.5 -177t137 -144.5t124 -97.5t104.5 -36q27 0 59.5 6t62.5 21.5t49.5 40t19.5 59.5 q0 23 -7.5 42t-17.5 38l131 123q14 -10 23.5 -23.5t9.5 -29.5q0 -53 -37 -120t-100.5 -126.5t-145.5 -99.5t-172 -40q-76 0 -162 56.5t-180 153t-193.5 226.5t-198.5 276.5t-197.5 303t-190.5 305.5z" />
<glyph unicode="&#xc7;" horiz-adv-x="1294" d="M0 829l209 125q20 -55 68.5 -149t115 -208t148.5 -239t168 -243q94 115 181 233.5t154.5 217t107.5 164t40 75.5l190 123q-4 -10 -33.5 -56.5t-82 -120t-122 -168t-149.5 -198.5q102 -94 219 -167t240 -95q-43 -47 -86 -66.5t-88 -19.5q-59 0 -108.5 24.5t-94.5 61.5 t-86 79t-82 74q-41 -51 -83 -102t-87 -102q72 -94 142.5 -177t137 -144.5t124 -97.5t104.5 -36q27 0 59.5 6t62.5 21.5t49.5 40t19.5 59.5q0 23 -7.5 42t-17.5 38l131 123q14 -10 23.5 -23.5t9.5 -29.5q0 -53 -37 -120t-100.5 -126.5t-145.5 -99.5t-172 -40q-76 0 -162 56.5 t-180 153t-193.5 226.5t-198.5 276.5t-197.5 303t-190.5 305.5z" />
<glyph unicode="&#xc8;" horiz-adv-x="1007" d="M0 283q6 39 25.5 82t46 85t56.5 79.5t58 66.5q2 -74 52.5 -115t121.5 -41h160q111 0 235 25t222 78q-20 -47 -39.5 -94.5t-47.5 -84t-68 -59t-101 -22.5h-721z" />
<glyph unicode="&#xc9;" horiz-adv-x="1828" d="M0 270q6 39 25.5 82t46 85t56.5 80t56 67q4 -72 53.5 -114t120.5 -42h985q109 0 233 24.5t220 77.5q-20 -47 -39.5 -94t-47.5 -84t-67.5 -59.5t-101.5 -22.5h-1540z" />
<glyph unicode="&#xca;" horiz-adv-x="307" d="M0 -199q18 123 26.5 252t9.5 260t-1 261.5t-2 254.5l209 125v-997q-53 -41 -117 -87t-125 -69z" />
<glyph unicode="&#xcb;" horiz-adv-x="313" d="M0 -836q35 219 35 438.5v440.5l-2 786l209 125v-1636q-53 -41 -116 -86t-126 -68z" />
<glyph unicode="&#xcc;" horiz-adv-x="612" d="M0 -639q0 51 16.5 104.5t39 105.5t49 103.5t45.5 98.5q6 195 11 321.5t8 211.5t4 141.5t2 108.5t1 113.5v159.5q23 14 56.5 37t70.5 43.5t72 36t59 15.5q39 0 70 -24t50 -59.5t29.5 -75.5t10.5 -73q0 -76 -33 -151l-446 -998q-8 -16 -11.5 -38.5t-3.5 -41.5 q0 -72 51.5 -110.5t116.5 -38.5q35 0 69 13t58 36q-10 -39 -30.5 -86t-51 -88t-69.5 -68.5t-84 -27.5q-41 0 -71 23.5t-49.5 58t-29.5 74.5t-10 75zM385 291q12 27 30.5 65.5t36 79.5t30 82t12.5 72q0 47 -35 93t-74 71v-463z" />
<glyph unicode="&#xcd;" horiz-adv-x="819" d="M283 446l127 129l139 -141l-127 -127z" />
<glyph unicode="&#xce;" horiz-adv-x="819" d="M115 412l110 127l125 -140l-112 -127zM469 412l113 127l123 -140l-111 -127z" />
<glyph unicode="&#xcf;" horiz-adv-x="819" d="M319 74q14 125 35 247.5t56 245.5l100 -368z" />
<glyph unicode="&#xd0;" horiz-adv-x="819" d="M137 508l191 125q-14 -125 -35 -248t-55 -246zM494 508l190 125q-14 -125 -34.5 -248t-55.5 -246z" />
<glyph unicode="&#xd1;" d="M-2873 799l221 184h3080l-223 -184h-3078z" />
<glyph unicode="&#xd2;" d="M-543 1397l127 129l140 -142l-127 -127z" />
<glyph unicode="&#xd3;" d="M-543 -782l127 127l140 -142l-127 -127z" />
<glyph unicode="&#xd4;" d="M-705 1257l111 127l125 -139l-113 -127zM-350 1257l112 127l123 -139l-110 -127z" />
<glyph unicode="&#xd5;" d="M-705 -782l111 127l125 -142l-113 -127zM-350 -782l112 127l123 -142l-110 -127z" />
<glyph unicode="&#xd6;" d="M-715 1253l111 115l125 -127l-113 -115zM-528 1509l110 117l123 -129l-113 -115zM-340 1253l113 115l123 -127l-111 -115z" />
<glyph unicode="&#xd7;" d="M-715 -770l111 115l125 -127l-113 -117zM-524 -1028l112 117l121 -129l-110 -115zM-340 -770l113 115l123 -127l-111 -117z" />
<glyph unicode="&#xd8;" d="M-715 1509l111 117l125 -129l-113 -115zM-524 1253l112 115l121 -127l-110 -115zM-340 1509l113 117l123 -129l-111 -115z" />
<glyph unicode="&#xd9;" d="M-715 -1028l111 117l125 -129l-113 -115zM-528 -770l110 115l123 -127l-113 -117zM-340 -1028l113 117l123 -129l-111 -115z" />
<glyph unicode="&#xda;" d="M-705 1257l111 127l125 -139l-113 -127zM-705 1626l111 127l125 -139l-113 -127zM-350 1257l112 127l123 -139l-110 -127zM-350 1626l112 127l123 -139l-110 -127z" />
<glyph unicode="&#xdb;" d="M-705 -782l111 127l125 -140l-113 -127zM-705 -1151l111 127l125 -139l-113 -127zM-350 -782l112 127l123 -140l-110 -127zM-350 -1151l112 127l123 -139l-110 -127z" />
<glyph unicode="&#xdc;" d="M-1370 1898q-4 4 16.5 26t46.5 50q31 31 70 72q39 29 99.5 48.5t119.5 19.5q98 0 182 -46.5t152 -119t120 -162.5t91 -178t64.5 -167t39.5 -126l-41 -178q-10 43 -37.5 122.5t-72.5 174t-105.5 192.5t-136.5 178t-166 131.5t-194 51.5q-43 0 -86 -14.5t-78 -32t-58.5 -31 t-25.5 -11.5z" />
<glyph unicode="&#xdd;" d="M-1497 -1196q0 41 24.5 85t53.5 79q35 41 78 82q16 -63 49 -115q29 -43 73.5 -79t116.5 -36q129 0 237.5 50.5t194.5 136.5t149.5 199.5t100.5 240.5q4 10 12 10q14 0 15 -20q-10 -55 -43 -133t-87.5 -163t-126 -169t-160.5 -150.5t-192.5 -107.5t-218.5 -41 q-70 0 -122 15.5t-85.5 37t-51 44t-17.5 34.5z" />
<glyph unicode="&#xde;" d="M-424 1223q10 55 43 133t87 163t126 169t161 150.5t192.5 107.5t217.5 41q70 0 122.5 -16.5t86 -38t51 -43.5t17.5 -34q0 -41 -24.5 -85t-53.5 -78q-35 -41 -78 -82q-16 63 -49 114q-29 43 -74 79t-116 36q-129 0 -237.5 -50t-194.5 -136t-149.5 -200t-100.5 -241 q-4 -10 -13 -10q-14 0 -14 21z" />
<glyph unicode="&#xdf;" d="M-451 -797l41 179q10 -43 38 -123t73 -174.5t105.5 -192.5t136 -177t166 -130t194.5 -51q43 0 86 14t78 31.5t57.5 30t26.5 10.5q4 -4 -16.5 -25.5t-47.5 -50.5q-31 -33 -69 -72q-41 -29 -100.5 -48t-118.5 -19q-98 0 -182.5 46t-152 118.5t-119.5 162.5t-91 178.5 t-65.5 166t-39.5 126.5z" />
<glyph unicode="&#xe0;" d="M-1174.5 1780q-1.5 41 3.5 75q6 39 16 80l184 174q-6 -8 -21.5 -41.5t-27.5 -79.5t-14 -99.5t22 -98.5q57 -111 148.5 -212t195 -179t207 -124t185.5 -46l-134 -66q-78 0 -186.5 39t-218 110.5t-203.5 171t-141 220.5q-14 35 -15.5 76z" />
<glyph unicode="&#xe1;" d="M-1174 -1380q0 115 41 218t108 192t150.5 161t168.5 126t163 87t133 43q16 4 20.5 -9.5t-9.5 -17.5q-127 -37 -241 -100t-200 -149t-136 -195t-50 -238q0 -72 36 -116.5t79 -73.5q51 -33 114 -49q-43 -43 -88 -74q-39 -27 -86 -47t-88 -12q-14 2 -33.5 21.5t-38 52 t-31 78.5t-12.5 102z" />
<glyph unicode="&#xe2;" d="M-429 1103q-3 13 9 17q127 37 242 100.5t201 149.5t136 194.5t50 237.5q0 72 -37 117t-80 74q-51 33 -115 49q43 43 89 74q39 27 85 46t89 13q14 -2 33.5 -21.5t38 -52.5t30.5 -79t12 -101q0 -115 -41 -218.5t-107.5 -192.5t-150.5 -160.5t-169 -126t-162.5 -87 t-133.5 -42.5q-16 -4 -19 9z" />
<glyph unicode="&#xe3;" d="M-543 -621l133 66q78 0 186.5 -39t218 -110.5t204 -171t141.5 -220.5q14 -35 15 -75.5t-3 -75.5q-6 -41 -16 -80l-180 -174q6 8 21.5 42t26.5 80t12 98t-23 99q-57 111 -148.5 212.5t-195 179t-207 123.5t-185.5 46z" />
<glyph unicode="&#xe4;" d="M-1477 1528q4 33 19.5 67.5t35 66.5t41 57.5t35.5 41.5q37 23 88.5 34t111 8t124 -24.5t129.5 -62.5q39 -25 86 -67.5t96 -94t96.5 -107.5t88.5 -106q-41 63 -85 131t-85 126.5t-76 103.5t-55 67q-37 41 -86.5 70t-104.5 45.5t-112.5 20.5t-110.5 -2q25 18 51.5 42.5 t54 47t58 39t65.5 22.5q41 -4 81 -19.5t75 -40t64.5 -54t52.5 -60.5q59 -80 103 -171t81 -181t70.5 -172t74.5 -142l25 -104q-10 8 -61.5 62.5t-132 127t-185 151.5t-223.5 138q-53 27 -120 43.5t-133.5 13t-129 -31t-107.5 -86.5z" />
<glyph unicode="&#xe5;" d="M-1649 -1335q-8 41 12.5 85t47.5 79q31 41 73 77q47 -31 101 -53q47 -20 108.5 -36.5t132.5 -16.5q125 0 231.5 36t192.5 99.5t154 148.5t117 183q-45 -57 -110.5 -115.5t-156 -105.5t-206 -77t-258.5 -30q-55 0 -104.5 12.5t-86.5 31t-59.5 37.5t-24.5 34q-8 41 26 85 t75 79q49 41 114 77q12 -59 39 -104q23 -41 66 -72.5t114 -31.5q129 0 226.5 17t172 59t133 112t109.5 172q4 14 18.5 10t8.5 -20q-10 -55 -51 -141.5t-105.5 -182.5t-150.5 -192.5t-186.5 -174t-211 -127t-225.5 -49.5q-55 0 -113.5 9.5t-107.5 24t-81 30.5t-34 31z" />
<glyph unicode="&#xe6;" d="M-436 1139q10 55 51 141t105.5 182.5t150.5 192.5t186.5 174t211 127t225.5 49q55 0 113.5 -9t107.5 -23.5t80.5 -31t33.5 -30.5q6 -43 -13 -86t-46 -78q-31 -41 -74 -78q-47 31 -100 53q-47 20 -108.5 37t-133.5 17q-125 0 -231.5 -36t-192.5 -99.5t-153.5 -148.5 t-114.5 -183q43 57 108.5 115.5t155.5 105.5t205 76.5t260 29.5q55 0 104.5 -12t86 -30.5t59.5 -38t25 -33.5q6 -43 -27 -86t-74 -78q-49 -41 -114 -78q-12 57 -39 104q-23 39 -66 72t-115 33q-129 0 -226 -17.5t-172 -59.5t-133 -111.5t-110 -172.5q-4 -14 -17 -9.5 t-9 20.5z" />
<glyph unicode="&#xe7;" d="M-432 -571q10 -10 61.5 -63.5t131 -125t184 -150.5t223.5 -139q53 -29 119.5 -45t133 -13t128 30.5t108.5 87.5q-4 -33 -18 -68t-34.5 -65.5t-42 -57t-36.5 -43.5q-37 -23 -88 -34t-110.5 -8t-124 24.5t-129.5 62.5q-39 25 -85 68t-95.5 95t-96.5 107.5t-88 104.5 q39 -66 84 -131t86 -123.5t75 -104.5t54 -69q37 -41 86 -68.5t104.5 -44t113 -21.5t110.5 1q-25 -18 -51.5 -43t-54 -47.5t-58.5 -38.5t-65 -23q-41 2 -80 19.5t-75 42t-65.5 54.5t-52.5 59q-59 80 -103 171t-81 181t-72 172t-74 141z" />
<glyph unicode="&#xe8;" d="M-858 1464l149 176q23 -53 73 -96t112.5 -73.5t132 -48t131.5 -17.5q61 0 118.5 19.5t108.5 51t96.5 70.5t79.5 78l4 2q-39 -61 -103 -133t-141 -136.5t-159 -111.5t-154 -59q-57 -10 -128.5 11.5t-137 61t-117 94t-65.5 111.5z" />
<glyph unicode="&#xe9;" d="M-967 -999q39 61 103.5 132.5t141.5 136t159 112t153 59.5q57 10 129 -11.5t137.5 -61.5t116 -94t66.5 -112l-150 -176q-23 51 -72.5 95.5t-112 75t-132.5 48t-131 17.5t-118.5 -19.5t-109 -51.5t-96.5 -70.5t-80 -77.5z" />
<glyph unicode="&#xea;" d="M-967 1208q39 61 103.5 133t141.5 136.5t159 111.5t153 60q57 10 129 -11.5t137.5 -61.5t116 -94.5t66.5 -111.5l-150 -176q-23 51 -72.5 95t-112 75t-132.5 48.5t-131 17.5t-118.5 -19.5t-109 -51.5t-96.5 -71t-80 -78z" />
<glyph unicode="&#xeb;" d="M-858 -723l149 176q23 -53 73 -96t112.5 -74t132 -48t131.5 -17q61 0 118.5 19.5t108.5 51t96.5 70.5t79.5 78l4 2q-39 -61 -103 -133t-141 -136.5t-159 -111.5t-154 -59q-57 -10 -128.5 11t-137 61t-117 94.5t-65.5 111.5z" />
<glyph unicode="&#xec;" d="M-999 1729q23 25 56.5 59.5t73.5 65t80.5 52t75.5 21.5q84 0 137.5 -56t86 -136t50 -167t29.5 -149q25 84 59 174t85 164t124.5 122t178.5 48q37 0 77 -28.5t62 -55.5l-209 -117q-47 68 -91 70t-85 -37t-74.5 -108.5t-60.5 -146.5t-43 -149.5t-19 -117.5l-200 -47 q-6 41 -14.5 98.5t-20.5 121t-30.5 124.5t-48.5 110.5t-70.5 80t-98.5 30.5q-53 0 -110 -26z" />
<glyph unicode="&#xed;" d="M-995 -1210l209 116q45 -68 90 -70.5t86 37.5t74.5 109.5t59 146t42 149.5t18.5 118l203 47q6 -41 14.5 -98.5t20.5 -121t30.5 -125t48 -110.5t70.5 -79.5t99 -30.5q29 0 56.5 7t53.5 17q-23 -25 -56.5 -58.5t-73.5 -65t-81 -53t-75 -21.5q-84 0 -137.5 56t-86 137 t-50 168t-30.5 149q-25 -84 -58.5 -174.5t-84.5 -165t-126 -122.5t-179 -48q-35 0 -75 29.5t-62 56.5z" />
<glyph unicode="&#xee;" d="M-993 1266l207 118q45 -68 90 -70.5t86 36.5t74.5 108.5t60 146t42 149.5t19.5 118l203 49q6 -41 14.5 -99.5t19.5 -121t30.5 -125t48 -111.5t70.5 -79.5t100 -30.5q55 0 108 26q-23 -25 -56.5 -59.5t-73.5 -65t-81 -52t-75 -21.5q-84 0 -137.5 56t-85 136t-50 168 t-31.5 150q-25 -84 -58.5 -174.5t-84.5 -165t-125 -122.5t-178 -48q-37 0 -76 29.5t-61 54.5z" />
<glyph unicode="&#xef;" d="M-1001 -756q23 25 57.5 59.5t73.5 65.5t79.5 52.5t77.5 21.5q82 0 135.5 -56.5t86 -136t51 -167t30.5 -148.5q25 84 59 174t85 164t124.5 122t178.5 48q37 0 76 -28.5t61 -55.5l-207 -117q-47 68 -92 70t-85 -37t-74.5 -108.5t-60.5 -146.5t-42 -149.5t-19 -117.5 l-202 -47q-8 41 -15.5 98t-19.5 120.5t-30.5 125t-47.5 110.5t-71 80t-99 31q-53 0 -110 -27z" />
<glyph unicode="&#xf0;" d="M-729 1352q0 74 31.5 142.5t86 120.5t125 83t150.5 31q53 0 90 -14.5t59.5 -39t32 -56.5t9.5 -67q0 -74 -32 -141.5t-86 -119.5t-126 -82.5t-150 -30.5q-53 0 -90 14t-59.5 37.5t-31.5 55.5t-9 67zM-600 1493q0 -45 13.5 -87t39 -75t60 -52t77.5 -19q72 0 119 47.5 t47 115.5q0 35 -10 76t-31.5 76t-54.5 58.5t-78 23.5q-33 0 -65.5 -11.5t-58 -32t-42 -51t-16.5 -69.5z" />
<glyph unicode="&#xf1;" d="M-728 -915.5q1 49.5 15 98.5q16 59 54 109.5t90.5 87t113 57t119.5 20.5q72 0 114 -24.5t59.5 -64.5t16.5 -89t-16 -98q-16 -59 -54 -109.5t-90 -87.5t-113 -57.5t-120 -20.5q-72 0 -113.5 25t-59 64.5t-16.5 89zM-600 -778q0 -45 13.5 -87t39 -75t60 -52.5t77.5 -19.5 q72 0 119 48t47 116q0 35 -10 76t-31.5 75.5t-54.5 58.5t-78 24q-33 0 -65.5 -11.5t-58 -32t-42 -51t-16.5 -69.5z" />
<glyph unicode="&#xf2;" d="M-1038 1073q10 29 50 60.5t83 58.5q51 31 112 57h717q104 0 186 7.5t117 17.5q-10 -31 -50 -61.5t-83 -57.5q-51 -31 -112 -57h-717q-104 0 -186.5 -7.5t-116.5 -17.5z" />
<glyph unicode="&#xf3;" d="M-1038 -555q10 29 50 60.5t83 58.5q51 31 112 57h717q104 0 186 7.5t117 17.5q-10 -31 -50 -61.5t-83 -57.5q-51 -31 -112 -57h-717q-104 0 -186.5 -7.5t-116.5 -17.5z" />
<glyph unicode="&#xf4;" d="M-510 1577l191 125q-14 -125 -35 -248t-56 -246z" />
<glyph unicode="&#xf5;" d="M-500 -1049q14 125 35 248t55 246l101 -369z" />
<glyph unicode="&#xf6;" d="M-795 471l107 109l119 -121l-107 -107z" />
<glyph unicode="&#xf7;" horiz-adv-x="1126" d="M205 -2q0 55 21.5 102t56 83t82 59.5t100.5 31.5q104 12 235 17.5t263.5 -6t255.5 -40t211 -83.5q-129 27 -260.5 38t-266.5 11q-61 0 -153.5 -3t-179.5 -23.5t-148.5 -63.5t-61.5 -123q0 -43 21.5 -76t54.5 -56.5t74 -35.5t78 -12q47 0 86 30.5t43 81.5l180 66 q-6 -59 -62.5 -107.5t-131 -83t-153.5 -54t-128 -19.5q-43 0 -82 17.5t-68.5 51t-48 83.5t-18.5 114z" />
<glyph unicode="&#xf8;" horiz-adv-x="1126" d="M-303 129q57 31 137 57.5t171 49t189.5 39t190.5 27.5t173 17.5t140 6.5q45 0 85 -12.5t71 -36t49.5 -59.5t18.5 -85q0 -84 -39 -159.5t-101.5 -134t-140.5 -92.5t-154 -34q-43 0 -88 12.5t-81.5 36t-61.5 59.5t-27 85l181 51q2 -31 15 -59.5t34.5 -51t50.5 -36t59 -13.5 q92 0 144.5 56.5t52.5 146.5q0 76 -49 116t-119 58.5t-143.5 20.5t-122.5 2q-160 0 -318.5 -18.5t-316.5 -49.5z" />
<glyph unicode="&#xf9;" horiz-adv-x="1126" d="M205 0q0 84 39 160t101.5 134t140 92t153.5 34q43 0 88 -12.5t82 -36t61.5 -59.5t26.5 -85l-180 -51q-2 31 -15.5 59.5t-35 51t-50 36t-61.5 13.5q-92 0 -143.5 -57.5t-51.5 -145.5q0 -76 49.5 -116t119 -58t143 -20t123.5 -2q160 0 318.5 18t316.5 49 q-57 -31 -137.5 -57.5t-171.5 -49t-189 -39t-190.5 -27.5t-173.5 -17.5t-140 -6.5q-45 0 -85 12.5t-70.5 36t-49 59.5t-18.5 85z" />
<glyph unicode="&#xfa;" horiz-adv-x="1126" d="M-303 129q35 18 106.5 45t164.5 55.5t199.5 54t212 43t204 21.5t173 -11t120 -54t45.5 -109q0 -86 -41 -152.5t-107 -125.5q61 -16 104.5 -51t43.5 -113q0 -84 -39 -154t-101.5 -120t-140.5 -77.5t-154 -27.5q-43 0 -88 9t-81.5 28.5t-61.5 52.5t-27 82l181 51 q4 -61 50 -100t109 -39q92 0 144.5 46t52.5 136q0 53 -24.5 88t-64.5 56.5t-90 32.5t-100 20q51 14 100.5 30.5t89.5 41t64.5 61.5t24.5 92q0 84 -67.5 126t-172 54t-231.5 2t-246 -28.5t-215 -38t-137 -27.5z" />
<glyph unicode="&#xfb;" horiz-adv-x="1126" d="M205 -41q0 86 41 152.5t106 126.5q-61 16 -104 51t-43 112q0 84 39 154t101.5 120t140 77.5t153.5 27.5q43 0 88 -9t82 -28.5t61.5 -52.5t26.5 -82l-180 -51q-4 61 -50 100t-110 39q-92 0 -144.5 -46t-52.5 -136q0 -53 25 -88t64.5 -56.5t90 -32.5t99.5 -20 q-51 -16 -100.5 -32.5t-89 -41t-64.5 -60.5t-25 -91q0 -84 68 -126t172.5 -54t231 -2t245.5 28.5t214 38t139 27.5q-35 -18 -107 -45t-165 -55.5t-199.5 -54t-212 -43t-204 -21.5t-173 11.5t-119.5 54t-45 108.5z" />
<glyph unicode="&#xfc;" horiz-adv-x="614" d="M-115 49l43 51q35 -4 70 -7t70 -3q111 0 219.5 16.5t214.5 47.5q-14 -33 -31.5 -68t-41 -64.5t-54.5 -49t-72 -19.5q-33 0 -88 11t-116.5 27.5t-119 32t-94.5 25.5zM-102 211l41 63q82 16 148.5 40t127.5 51.5t122.5 59.5t135.5 67q-4 -47 -10 -90.5t-24.5 -77t-51.5 -56 t-88 -28.5q-100 -10 -200.5 -15.5t-200.5 -13.5z" />
<glyph unicode="&#xfd;" horiz-adv-x="614" d="M49 301q14 33 31.5 67.5t42 64.5t55.5 49.5t72 19.5q31 0 86 -11.5t116.5 -28t119 -32.5t94.5 -24l-43 -52q-35 6 -69 8.5t-69 2.5q-111 0 -220 -16.5t-216 -47.5zM80 -37q2 47 9 90t25.5 77t51.5 56.5t88 28.5q98 10 198.5 15.5t200.5 13.5l-39 -64 q-84 -16 -149.5 -39.5t-127 -51.5t-122.5 -60.5t-135 -65.5z" />
<glyph unicode="&#xfe;" horiz-adv-x="512" d="M-90 -446l113 86q37 -16 75 -17q92 0 144.5 46t52.5 136q0 53 -24.5 88t-64.5 56.5t-90 33t-100 19.5q51 14 100.5 30.5t89.5 41t64.5 61.5t24.5 92q0 51 -27.5 87t-75 57.5t-111 32t-134.5 10.5q31 33 67 59q31 23 70 42.5t84 19.5q123 -2 203 -41t80 -134 q0 -86 -41 -152.5t-107 -125.5q61 -16 104.5 -51t43.5 -113q0 -84 -39 -153.5t-101.5 -120t-140.5 -78t-154 -27.5q-57 0 -106 15z" />
<glyph unicode="&#xff;" horiz-adv-x="512" d="M0 156q0 84 39 153.5t101.5 119.5t140 78t153.5 28q57 0 107 -15l-113 -86q-37 16 -76 17q-92 0 -144 -46.5t-52 -136.5q0 -53 24.5 -88t64.5 -56.5t90 -32.5t99 -19q-51 -16 -100 -32.5t-89 -41.5t-64.5 -60.5t-24.5 -91.5q0 -53 27.5 -87.5t74.5 -56t110.5 -32 t135.5 -10.5q-31 -35 -68 -61q-31 -23 -70.5 -41.5t-82.5 -18.5q-123 2 -203 41t-80 133q0 86 41 152.5t106 126.5q-61 16 -104 51t-43 113z" />
<glyph unicode="&#x152;" horiz-adv-x="1527" d="M0 -289q0 55 41 125t102.5 132.5t130 109.5t123.5 57v694l209 125v-393q158 2 325 4t326 21v243l209 125v-1452q-51 -41 -115.5 -87t-123.5 -68q18 125 24 257t6 261v135h-651v-43q0 -59 -13 -104.5t-38 -82t-62.5 -67.5t-86.5 -59q-61 -37 -137 -63.5t-150 -26.5 q-66 0 -92.5 49t-26.5 108zM133 -207q0 -29 18.5 -54.5t46 -45t59.5 -30.5t58 -11q82 0 82 84v264q-51 0 -99 -9t-85 -31.5t-58.5 -62.5t-21.5 -104zM606 152q160 0 326 2t325 20v238h-651v-260z" />
<glyph unicode="&#x153;" horiz-adv-x="616" d="M0 117q0 74 29.5 152.5t77 151.5t108.5 132t127 90q-55 47 -119.5 79t-134.5 52l143 156q80 -8 151 -50t123 -105.5t81.5 -141.5t29.5 -156q0 -74 -28.5 -151.5t-76.5 -148.5t-109.5 -129t-125.5 -89q113 -96 252 -137l-143 -156q-80 6 -150.5 49t-123 105.5t-82 140.5 t-29.5 156zM119 246q6 -84 45 -153.5t102 -125.5q31 27 65 59.5t64.5 69.5t56 76t37.5 82q-37 -8 -83 -11t-82 -3q-51 0 -102.5 3t-102.5 3zM133 358q82 2 180.5 6.5t182.5 12.5q-10 76 -49 141.5t-97 116.5q-29 -27 -60.5 -58.5t-61 -66.5t-55.5 -73t-40 -79z" />
<glyph unicode="&#x178;" horiz-adv-x="1380" d="M0 221q0 94 46 170t118 131.5t162 89t178 45.5v172l211 125v-802q168 6 333.5 18t331.5 45q-25 -92 -78 -153.5t-157 -61.5h-490q-90 0 -178 -10t-178 -10q-63 0 -117.5 13t-94.5 41.5t-63.5 75t-23.5 111.5zM180 371q0 -59 30 -105.5t76 -79t101 -52t105 -25.5 q2 33 6 71q2 35 4 79t2 97v136q-33 31 -66 50t-80 19q-33 0 -64.5 -19.5t-57 -48t-41 -62.5t-15.5 -60z" />
<glyph unicode="&#x2c6;" horiz-adv-x="2238" d="M0 -289q0 55 41 125t102.5 132.5t130 109.5t123.5 57v694l209 125v-817l228 4v688l208 125v-383q35 0 90.5 1t124.5 6v251l209 125v-368q78 2 156 7t146.5 10t126 12.5t92.5 15.5q-10 -39 -23.5 -77t-35 -68.5t-53.5 -49t-81 -18.5q-37 0 -128 1t-200 5v-272 q168 6 334 18t332 45q-25 -92 -78 -153.5t-158 -61.5h-1290v-43q0 -90 -44 -164t-114.5 -127t-156.5 -82.5t-172 -29.5q-66 0 -92.5 49t-26.5 108zM133 -207q0 -29 18.5 -54.5t46 -45t59.5 -30.5t58 -11q82 0 82 84v264q-51 0 -99 -9t-85 -31.5t-58.5 -62.5t-21.5 -104z M1042 143l215 4v285q-74 4 -131 5t-84 5v-299z" />
<glyph unicode="&#x2dc;" horiz-adv-x="1382" d="M0 -369q0 37 21.5 94.5t58.5 123t84 131t100 119t107.5 89t103.5 41.5v600l209 125v-376q174 4 351 13t347 44q-10 -41 -23 -80t-37 -68.5t-57.5 -47t-82.5 -17.5q-125 0 -248 8t-250 14v-206q23 0 78 3t127 1t148.5 -13.5t141 -41t105.5 -81t41 -133.5q0 -74 -44 -175 t-112.5 -194t-152.5 -157.5t-164 -64.5q-16 0 -30.5 10t-28 23.5t-24.5 28.5t-17 28l98 131q33 -25 72 -43.5t82 -18.5t74.5 19.5t53 49.5t32 67.5t10.5 74.5q0 76 -28 137.5t-76 105.5t-112.5 68.5t-138.5 24.5h-67.5t-67.5 -2v-197q0 -102 -27.5 -189t-83 -149.5 t-137.5 -98.5t-188 -36q-47 0 -91 13.5t-79 41t-56.5 67.5t-21.5 93zM133 -315q0 -39 20.5 -78t51.5 -71t68.5 -51.5t72.5 -19.5q20 0 43 10.5t42.5 28t31.5 40t12 46.5v488q-100 -6 -166.5 -39t-105.5 -85t-54.5 -121t-15.5 -148z" />
<glyph unicode="&#x2000;" horiz-adv-x="1088" />
<glyph unicode="&#x2001;" horiz-adv-x="2176" />
<glyph unicode="&#x2002;" horiz-adv-x="1088" />
<glyph unicode="&#x2003;" horiz-adv-x="2176" />
<glyph unicode="&#x2004;" horiz-adv-x="725" />
<glyph unicode="&#x2005;" horiz-adv-x="544" />
<glyph unicode="&#x2006;" horiz-adv-x="362" />
<glyph unicode="&#x2007;" horiz-adv-x="362" />
<glyph unicode="&#x2008;" horiz-adv-x="272" />
<glyph unicode="&#x2009;" horiz-adv-x="435" />
<glyph unicode="&#x200a;" horiz-adv-x="120" />
<glyph unicode="&#x2010;" horiz-adv-x="1540" d="M0 297q0 106 33 192t85 162t116.5 146.5t127.5 144.5q8 8 13.5 2t1.5 -12q-59 -59 -102.5 -111.5t-72 -109t-43 -124t-14.5 -155.5q0 -66 35 -123t90.5 -98t123 -64.5t132.5 -23.5h127q12 98 16.5 180t4.5 162t-2 167t-2 197l198 125v-831h195q12 98 16 180t4 162t-2 167 t-2 197l199 125v-829h43q74 0 148.5 -3t136 -25.5t99.5 -74t38 -149.5q0 -37 -25.5 -71.5t-61.5 -67.5t-76 -58.5t-67 -44.5q27 63 27 123q0 111 -54 178.5t-173 67.5l-1012 -2q-57 0 -111.5 26.5t-96.5 68.5t-67.5 95.5t-25.5 108.5z" />
<glyph unicode="&#x2011;" horiz-adv-x="1540" d="M0 297q0 106 33 192t85 162t116.5 146.5t127.5 144.5q8 8 13.5 2t1.5 -12q-59 -59 -102.5 -111.5t-72 -109t-43 -124t-14.5 -155.5q0 -66 35 -123t90.5 -98t123 -64.5t132.5 -23.5h127q12 98 16.5 180t4.5 162t-2 167t-2 197l198 125v-831h195q12 98 16 180t4 162t-2 167 t-2 197l199 125v-829h43q74 0 148.5 -3t136 -25.5t99.5 -74t38 -149.5q0 -37 -25.5 -71.5t-61.5 -67.5t-76 -58.5t-67 -44.5q27 63 27 123q0 111 -54 178.5t-173 67.5l-1012 -2q-57 0 -111.5 26.5t-96.5 68.5t-67.5 95.5t-25.5 108.5z" />
<glyph unicode="&#x2012;" horiz-adv-x="1540" d="M0 297q0 106 33 192t85 162t116.5 146.5t127.5 144.5q8 8 13.5 2t1.5 -12q-59 -59 -102.5 -111.5t-72 -109t-43 -124t-14.5 -155.5q0 -66 35 -123t90.5 -98t123 -64.5t132.5 -23.5h127q12 98 16.5 180t4.5 162t-2 167t-2 197l198 125v-831h195q12 98 16 180t4 162t-2 167 t-2 197l199 125v-829h43q74 0 148.5 -3t136 -25.5t99.5 -74t38 -149.5q0 -37 -25.5 -71.5t-61.5 -67.5t-76 -58.5t-67 -44.5q27 63 27 123q0 111 -54 178.5t-173 67.5l-1012 -2q-57 0 -111.5 26.5t-96.5 68.5t-67.5 95.5t-25.5 108.5z" />
<glyph unicode="&#x2013;" horiz-adv-x="1552" d="M0 -289q0 55 41 125t102.5 132.5t130 109.5t123.5 57v694l209 125v-802l238 8v669l188 125v-786q55 4 113.5 8t111.5 8v645l209 125v-745l31 6q-25 -92 -78 -153.5t-157 -61.5h-230l10 -981q-51 -41 -115.5 -87t-123.5 -69q18 125 24.5 257t6.5 262l10 618h-238v-43 q0 -59 -13 -104.5t-38 -82t-62.5 -67.5t-86.5 -59q-61 -37 -137 -63.5t-150 -26.5q-66 0 -92.5 49t-26.5 108zM133 -207q0 -29 18.5 -54.5t46 -45t59.5 -30.5t58 -11q82 0 82 84v264q-51 0 -99 -9t-85 -31.5t-58.5 -62.5t-21.5 -104z" />
<glyph unicode="&#x2014;" horiz-adv-x="1325" d="M0 -369q0 37 21.5 94.5t58.5 123t84 131t100 119t107.5 89t103.5 41.5v600l209 125v-716q23 0 78 3t127 1t148.5 -13.5t141 -41t105.5 -81t41 -133.5q0 -74 -44 -175t-112.5 -194t-152.5 -157.5t-164 -64.5q-16 0 -30.5 10t-28 23.5t-24.5 28.5t-17 28l98 131 q33 -25 72 -43.5t82 -18.5t74.5 19.5t53 49.5t32 67.5t10.5 74.5q0 76 -28 137.5t-76 105.5t-112.5 68.5t-138.5 24.5h-67.5t-67.5 -2v-197q0 -102 -27.5 -189t-83 -149.5t-137.5 -98.5t-188 -36q-47 0 -91 13.5t-79 41t-56.5 67.5t-21.5 93zM133 -315q0 -39 20.5 -78 t51.5 -71t68.5 -51.5t72.5 -19.5q20 0 43 10.5t42.5 28t31.5 40t12 46.5v488q-100 -6 -166.5 -39t-105.5 -85t-54.5 -121t-15.5 -148z" />
<glyph unicode="&#x2018;" horiz-adv-x="1527" d="M0 -289q0 55 41 125t102.5 132.5t130 109.5t123.5 57v694l209 125v-802q55 0 116.5 -1t121.5 1v677l188 125v-798q53 4 112.5 8t112.5 10v655l209 125v-1452q-51 -41 -115.5 -87t-123.5 -68q18 125 24 257t6 261v135h-651v-43q0 -59 -13 -104.5t-38 -82t-62.5 -67.5 t-86.5 -59q-61 -37 -137 -63.5t-150 -26.5q-66 0 -92.5 49t-26.5 108zM133 -207q0 -29 18.5 -54.5t46 -45t59.5 -30.5t58 -11q82 0 82 84v264q-51 0 -99 -9t-85 -31.5t-58.5 -62.5t-21.5 -104z" />
<glyph unicode="&#x2019;" horiz-adv-x="1527" d="M0 -289q0 55 41 125t102.5 132.5t130 109.5t123.5 57v694l209 125v-802q55 0 116.5 -1t121.5 1v677l188 125v-798q53 4 112.5 8t112.5 10v655l209 125v-1452q-51 -41 -115.5 -87t-123.5 -68q18 125 24 257t6 261v55l-784 -692q-41 -37 -99.5 -75t-117.5 -38 q-47 0 -69.5 29t-22.5 74q0 86 53 152.5t121 111.5q-4 -10 -6 -19.5t-2 -19.5q0 -25 3 -51.5t13 -48t28.5 -35t51.5 -13.5q29 0 51.5 12.5t42.5 28.5q96 78 187.5 161t182.5 168t181 169t186 164v2h-651v-43q0 -59 -13 -104.5t-38 -82t-62.5 -67.5t-86.5 -59 q-61 -37 -137 -63.5t-150 -26.5q-66 0 -92.5 49t-26.5 108zM133 -207q0 -29 18.5 -54.5t46 -45t59.5 -30.5t58 -11q82 0 82 84v264q-51 0 -99 -9t-85 -31.5t-58.5 -62.5t-21.5 -104z" />
<glyph unicode="&#x201a;" horiz-adv-x="1271" d="M0 -289q0 55 41 125t102.5 132.5t130 109.5t123.5 57v694l209 125v-802q168 6 334 18t332 45q-25 -92 -78 -153.5t-158 -61.5h-430v-43q0 -59 -13 -104.5t-38 -82t-62.5 -67.5t-86.5 -59q-61 -37 -137 -63.5t-150 -26.5q-66 0 -92.5 49t-26.5 108zM133 -207 q0 -29 18.5 -54.5t46 -45t59.5 -30.5t58 -11q82 0 82 84v264q-51 0 -99 -9t-85 -31.5t-58.5 -62.5t-21.5 -104z" />
<glyph unicode="&#x201c;" horiz-adv-x="1550" d="M0 -289q0 55 41 125t102.5 132.5t130 109.5t123.5 57v694l209 125v-802q59 2 137 5t164 7t176.5 9t173.5 11v645l209 125v-745l31 6q-25 -92 -78 -153.5t-157 -61.5h-656v-43q0 -59 -13 -104.5t-38 -82t-62.5 -67.5t-86.5 -59q-61 -37 -137 -63.5t-150 -26.5 q-66 0 -92.5 49t-26.5 108zM133 -207q0 -29 18.5 -54.5t46 -45t59.5 -30.5t58 -11q82 0 82 84v264q-51 0 -99 -9t-85 -31.5t-58.5 -62.5t-21.5 -104z" />
<glyph unicode="&#x201d;" horiz-adv-x="1550" d="M0 -289q0 55 41 125t102.5 132.5t130 109.5t123.5 57v694l209 125v-393q158 2 325 4t326 21v243l209 125v-745l31 6q-25 -92 -78 -153.5t-157 -61.5h-656v-43q0 -59 -13 -104.5t-38 -82t-62.5 -67.5t-86.5 -59q-61 -37 -137 -63.5t-150 -26.5q-66 0 -92.5 49t-26.5 108z M133 -207q0 -29 18.5 -54.5t46 -45t59.5 -30.5t58 -11q82 0 82 84v264q-51 0 -99 -9t-85 -31.5t-58.5 -62.5t-21.5 -104zM606 152q160 0 326 2t325 20v238h-651v-260z" />
<glyph unicode="&#x201e;" horiz-adv-x="1908" d="M0 -289q0 55 41 125t102.5 132.5t130 109.5t123.5 57v694l209 125v-815l467 8v682l209 125v-802q168 6 334 18t332 45q-25 -92 -78 -153.5t-158 -61.5h-1106v-43q0 -59 -13 -104.5t-38 -82t-62.5 -67.5t-86.5 -59q-61 -37 -137 -63.5t-150 -26.5q-66 0 -92.5 49 t-26.5 108zM133 -207q0 -29 18.5 -54.5t46 -45t59.5 -30.5t58 -11q82 0 82 84v264q-51 0 -99 -9t-85 -31.5t-58.5 -62.5t-21.5 -104z" />
<glyph unicode="&#x2022;" horiz-adv-x="1550" d="M0 -289q0 55 41 125t102.5 132.5t130 109.5t123.5 57v694l209 125v-802l238 8v669l188 125v-786q55 4 113.5 8t111.5 8v645l209 125v-745l31 6q-25 -92 -78 -153.5t-157 -61.5h-656v-43q0 -59 -13 -104.5t-38 -82t-62.5 -67.5t-86.5 -59q-61 -37 -137 -63.5t-150 -26.5 q-66 0 -92.5 49t-26.5 108zM133 -207q0 -29 18.5 -54.5t46 -45t59.5 -30.5t58 -11q82 0 82 84v264q-51 0 -99 -9t-85 -31.5t-58.5 -62.5t-21.5 -104z" />
<glyph unicode="&#x2026;" horiz-adv-x="1908" d="M0 -289q0 55 41 125t102.5 132.5t130 109.5t123.5 57v694l209 125v-815l467 8v682l209 125v-383q131 4 261 17.5t259 42.5q-10 -39 -23.5 -77t-35 -68.5t-53 -49t-80.5 -18.5q-84 0 -165 9t-163 15v-290q168 6 334 18t332 45q-25 -92 -78 -153.5t-158 -61.5h-1106v-43 q0 -59 -13 -104.5t-38 -82t-62.5 -67.5t-86.5 -59q-61 -37 -137 -63.5t-150 -26.5q-66 0 -92.5 49t-26.5 108zM133 -207q0 -29 18.5 -54.5t46 -45t59.5 -30.5t58 -11q82 0 82 84v264q-51 0 -99 -9t-85 -31.5t-58.5 -62.5t-21.5 -104z" />
<glyph unicode="&#x202f;" horiz-adv-x="435" />
<glyph unicode="&#x2039;" horiz-adv-x="1527" d="M0 -289q0 55 41 125t102.5 132.5t130 109.5t123.5 57v694l209 125v-802q160 0 326 2t325 20v655l209 125v-1452q-51 -41 -115.5 -87t-123.5 -68q18 125 24 257t6 261v55l-784 -692q-41 -37 -99.5 -75t-117.5 -38q-47 0 -69.5 29t-22.5 74q0 86 53 152.5t121 111.5 q-4 -10 -6 -19.5t-2 -19.5q0 -25 3 -51.5t13 -48t28.5 -35t51.5 -13.5q29 0 51.5 12.5t42.5 28.5q96 78 187.5 161t182.5 168t181 169t186 164v2h-651v-43q0 -90 -44 -164t-114.5 -127t-156.5 -82.5t-172 -29.5q-66 0 -92.5 49t-26.5 108zM133 -207q0 -29 18.5 -54.5t46 -45 t59.5 -30.5t58 -11q82 0 82 84v264q-51 0 -99 -9t-85 -31.5t-58.5 -62.5t-21.5 -104z" />
<glyph unicode="&#x203a;" horiz-adv-x="616" d="M0 117q0 74 29.5 152.5t77 151.5t108.5 132t127 90q-55 47 -119.5 79t-134.5 52l143 156q80 -8 151 -50t123 -105.5t81.5 -141.5t29.5 -156q0 -74 -28.5 -151.5t-76.5 -148.5t-109.5 -129t-125.5 -89q113 -96 252 -137l-143 -156q-80 6 -150.5 49t-123 105.5t-82 140.5 t-29.5 156zM117 274q0 -92 41 -169.5t108 -137.5q35 33 76 73t76 85t58.5 94.5t23.5 102.5q0 92 -41 172.5t-109 140.5q-37 -35 -78 -75t-75.5 -86t-57 -96t-22.5 -104z" />
<glyph unicode="&#x205f;" horiz-adv-x="544" />
<glyph unicode="&#x20ac;" horiz-adv-x="929" d="M0 375q0 53 31.5 116.5t83 127t118 124t134 106.5t132 73.5t113.5 27.5q14 0 18.5 -8t-5.5 -8q-47 0 -126 -38t-155 -97.5t-130 -131t-54 -141.5q0 -195 126 -307.5t376 -112.5q8 0 10 -6t-2 -8q-127 -80 -224.5 -191.5t-163 -229t-99 -229.5t-33.5 -187 q0 -68 35.5 -131.5t92 -111.5t125 -77t134.5 -29q37 0 78.5 14.5t75.5 39t56.5 60.5t22.5 79t-18.5 82t-44.5 74l133 116q25 -23 45 -45q16 -18 30.5 -38.5t14.5 -37.5q0 -53 -32 -110.5t-83 -112.5t-117.5 -104t-134 -87t-132 -59.5t-114.5 -21.5q-59 0 -115.5 32.5 t-101.5 83t-72.5 112t-27.5 116.5q0 66 24.5 145.5t65.5 165.5t90 172t100.5 163t96.5 138.5t76 100.5q-217 6 -335 109.5t-118 281.5z" />
<glyph unicode="&#x2122;" horiz-adv-x="2033" d="M0 -369q0 37 21.5 94.5t58.5 123t84 131t100 119t107.5 89t103.5 41.5v600l209 125v-716q74 2 165 5t180 -10.5t163 -50.5t113 -114q51 51 96 83.5t93 51t103.5 26t126.5 7.5q53 0 108.5 -19.5t99.5 -53.5t73 -83t29 -107q0 -49 -19.5 -111.5t-53.5 -128t-80 -129 t-97 -112.5t-106.5 -79.5t-108.5 -30.5q-14 0 -28.5 10t-28 23.5t-24.5 28.5t-18 28l97 131q33 -25 70.5 -43.5t80.5 -18.5t74 19.5t52.5 50.5t31.5 67.5t10 73.5q0 66 -24.5 126.5t-67.5 106.5t-101.5 74.5t-123.5 28.5q-78 2 -130.5 -14.5t-115.5 -63.5q2 -10 2 -18v-19 q0 -74 -44 -175t-112.5 -194t-152.5 -157.5t-164 -64.5q-16 0 -30.5 10t-28 23.5t-24.5 28.5t-17 28l98 131q33 -25 72 -43.5t82 -18.5t74.5 19.5t53 49.5t32 67.5t10.5 74.5q0 113 -44.5 180.5t-114 102.5t-157.5 45t-174 6v-197q0 -102 -27.5 -189t-83 -149.5 t-137.5 -98.5t-188 -36q-47 0 -91 13.5t-79 41t-56.5 67.5t-21.5 93zM133 -315q0 -41 19.5 -80t50 -70t68.5 -50.5t75 -19.5q20 0 43 10.5t42.5 28t31.5 40t12 46.5v488q-100 -6 -166.5 -39t-105.5 -85t-54.5 -121t-15.5 -148z" />
<glyph unicode="&#x25fc;" horiz-adv-x="952" d="M0 0v952h952v-952h-952z" />
</font>
</defs>
</svg>
